<?xml version="1.0" encoding="iso-8859-1"?>
<!-- Generator: Adobe Illustrator 19.0.0, SVG Export Plug-In . SVG Version: 6.00 Build 0)  -->
<svg version="1.1" id="Layer_1" xmlns="http://www.w3.org/2000/svg" xmlns:xlink="http://www.w3.org/1999/xlink" x="0px" y="0px"
	 viewBox="0 0 512 512" style="enable-background:new 0 0 512 512;" xml:space="preserve">
<path style="fill:#FFCB7F;" d="M256,0c141.385,0,256,114.615,256,256S397.385,512,256,512S0,397.385,0,256S114.615,0,256,0z"/>
<path style="fill:#FFF7DF;" d="M192.458,109.604c30.435,0,55.099,24.664,55.099,55.09s-24.664,55.09-55.099,55.09
	c-30.416,0-55.09-24.664-55.09-55.09S162.042,109.604,192.458,109.604z"/>
<path style="fill:#FFA526;" d="M10.187,327.682h491.625C470.812,434.176,372.497,512,256,512S41.188,434.176,10.187,327.682z"/>
<path style="fill:#FFB54C;" d="M5.177,204.547c2.476-0.546,4.904-0.965,7.273-1.219c33.769-3.588,101.328,34.354,129.579,36.402
	c28.261,2.057,108.912-64.595,140.615-53.315s104.769,43.577,145.44,49.221c22.763,3.149,51.999-14.886,78.409-32.648
	C510.099,220.096,512,237.828,512,256c0,4.163-0.107,8.306-0.302,12.43c-161.379,21.242-426.719,48.246-490.982,27.706
	c-6.639-2.125-12.8-4.289-18.513-6.454C0.76,278.656,0,267.416,0,256C0,238.374,1.784,221.178,5.177,204.547z"/>
<path style="fill:#F98B00;" d="M2.115,280.703c0,0,37.523-32.249,64.478-35.397c26.955-3.159,80.865,30.211,103.424,32.015
	s86.919-56.815,112.227-46.901c25.298,9.924,83.614,38.332,116.068,43.294c32.463,4.952,81.421-49.601,104.525-55.918
	c2.047-0.556,4.075-1.053,6.093-1.492C510.947,229.24,512,242.498,512,256c0,13.248-1.004,26.263-2.944,38.956L71.965,323.227
	L2.115,280.703z"/>
<path style="fill:#ED6C00;" d="M0.946,277.964c17.83-7.341,45.497-11.864,65.677,0.068c22.305,13.19,26.507,14.34,40.974,11.25
	c67.529-37.805,102.351-25.434,134.239,8.55c5.527,4.221,11.796,7.526,18.552,10.119c6.746-2.593,13.024-5.898,18.542-10.119
	c31.898-33.984,66.72-46.355,134.249-8.55c14.467,3.09,18.669,1.94,40.964-11.25c19.39-11.464,44.23-6.883,57.156-3.022
	c-1.336,18.152-4.562,35.768-9.485,52.672H10.187C5.537,311.704,2.398,295.073,0.946,277.964z"/>
<g>
	<path style="fill:#AF3510;" d="M464.651,404.365c-1.638-26.633-3.139-53.442-3.139-80.271c0-33.155-0.556-66.379-1.345-99.602
		l-4.504-4.533l6.083-6.795l-4.553-4.211l4.026-5.527l0,0l-4.855-3.977l7-8.91l-4.923-3.617l3.86-7.117l-5.245-3.51l6.756-10.665
		l-5.245-3.51l-0.273-5.128c-0.361-12.098-0.731-24.196-1.092-36.285c-0.244-8.218-0.712-16.446-1.355-24.684
		c-7.389-9.222-15.393-17.928-23.972-26.039c0.253,5.937,0.546,11.874,0.848,17.782c3.977,76.04,8.325,152.586,4.309,228.967
		c-1.248,23.787,4.153,45.292,2.661,68.913c-1.141,18.064-4.065,35.748-5.089,53.725
		C445.631,428.639,455.701,416.931,464.651,404.365z M289.331,2.154c5.83,0.76,11.601,1.716,17.304,2.866
		c-0.234,8.53-0.458,16.095,0.166,20.423c4.533,31.508,8.813,63.513,9.758,95.264c2.028,67.734,4.309,135.711,4.309,203.386
		c0,51.58,5.547,103.063,6.97,153.464c11.445,2.915,23.611,5.635,35.7,8.14c0.507-2.281,0.76-4.728,0.848-7.234v-0.029l-0.01-0.526
		l-0.029-0.721l-3.88-3.831l7.341-8.072l-3.88-3.831v-0.517c0-0.146-0.01-0.292-0.01-0.439c-0.059-22.354,4.055-44.005,5.459-66.242
		c1.482-23.611-3.909-45.117-2.661-68.913c4.016-76.381-0.331-152.927-4.299-228.967c-1.297-24.693-2.193-49.669-2.613-74.441
		c5.781,2.564,11.445,5.342,16.992,8.316c0.059,1.443,0.166,2.73,0.312,3.812c4.543,31.508,8.823,63.503,9.778,95.254
		c2.018,67.734,4.299,135.711,4.299,203.386c0,45.858,4.387,91.628,6.346,136.628C356.996,496.285,308.331,512,256,512
		c-43.148,0-83.79-10.694-119.46-29.538c5.147-1.677,10.343-3.168,15.744-4.182c2.164-7.955,0.702-18.211,0.682-26.39
		c-0.058-22.354,4.055-44.015,5.45-66.242c1.492-23.621-3.909-45.127-2.652-68.913c4.007-76.381-0.331-152.927-4.309-228.967
		c-1.111-21.359-1.94-42.933-2.418-64.409c5.479-2.515,11.055-4.845,16.719-6.98c-0.02,3.685,0.078,6.814,0.4,9.066
		c4.533,31.508,8.823,63.513,9.768,95.264c0.838,28.154,1.735,56.347,2.476,84.55v0.01v0.058l0.117,4.562l4.67,4.543l-8.881,9.524
		l4.679,4.533v0.01c0.741,31.898,1.248,63.776,1.248,95.595c0,52.799,5.8,105.49,7.048,157.041c1.628,0.546,3.266,1.131,4.913,1.725
		c8.93,3.188,17.284,3.276,26.877,4.358c10.187,1.15,17.645,3.87,27.949,2.33c7.399-1.102,15.198-3.549,21.769-4.484
		c8.813-1.248,15.715-2.778,23.719-5.459c2.749-8.121,1.121-19.068,1.092-27.715c-0.059-22.354,4.055-44.015,5.459-66.242
		c1.482-23.621-3.909-45.127-2.661-68.913c4.016-76.381-0.331-152.927-4.309-228.967C290.608,59.36,289.633,30.562,289.331,2.154z
		 M115.629,470.1c-11.055-7.263-21.515-15.354-31.293-24.196l0.37-3.441h29.314C114.586,451.704,115.142,460.917,115.629,470.1z
		 M42.29,396.956c-10.607-16.056-19.458-33.36-26.273-51.658c-0.799-9.339-1.414-18.756-0.897-28.564
		c2.574-48.919,1.716-97.916-0.283-146.795c6.034-16.894,13.785-32.97,23.056-48.022l1.492,1.618l-7.77,9.554l4.182,4.514
		c1.872,62.138,3.792,124.442,3.792,186.492C39.589,348.437,40.827,372.76,42.29,396.956z M79.413,70.649
		c5.596-5.323,11.435-10.392,17.489-15.198c4.124,29.11,7.828,58.589,8.706,87.855c0.273,9.066,0.546,18.133,0.819,27.199
		l0.721,5.43l3.549,5.118l-10.119,7.273l3.558,5.108l3.071,3.266c1.462,50.02,2.71,100.09,2.71,150.003
		c0,5.362,0.058,10.724,0.166,16.095H85.925c-0.565-7.672-0.907-15.442-0.487-23.455c4.016-76.391-0.331-152.937-4.299-228.977
		C80.446,97.184,79.871,83.926,79.413,70.649z"/>
	<path style="fill:#992C0A;" d="M337.704,446.333c-0.302-6.093-0.517-12.215-0.546-18.405c-0.166-26.78-3.256-50.176-3.256-77.151
		c0-17.762-0.302-27.433-0.673-47.028c4.046-2.915,7.848-6.064,11.318-9.719c4.65-4.904,10.616-9.983,14.009-15.91
		c1.306-2.281,1.979-5.333,2.398-7.896c0.283-1.755,0.224-8.481-1.989-3.948c-1.043,2.125-0.253,5.225-1.394,7.584
		c-1.316,2.72-3.519,5.011-5.859,6.844c-1.199,0.936-2.496,1.979-3.87,2.32c-0.653-1.54,1.911-9.992-1.803-8.608
		c-3.237,1.219-1.648,8.169-2.213,10.626c-0.838,3.636-5.206,6.278-8.247,8.325c-0.663,0.439-1.531,0.916-2.505,1.414
		c-0.058-3.305-0.107-6.853-0.166-10.733c-0.166-11.357-0.195-23.124-0.214-34.939l-4.679-4.25l7.662-10.031l-4.679-4.25
		l-0.858-4.465l5.82-8.033l-3.48-4.621l-0.02-2.603l-0.01-0.614v-0.614c-0.029-1.55-0.059-3.09-0.088-4.621
		c-0.205-10.275-0.409-20.501-0.536-30.747c4.085-2.934,7.916-6.103,11.416-9.788c4.65-4.904,10.626-9.983,14.009-15.91
		c1.306-2.291,1.989-5.333,2.398-7.896c0.283-1.755,0.224-8.491-1.989-3.958c-1.043,2.145-0.253,5.235-1.394,7.594
		c-1.316,2.72-3.519,5.011-5.859,6.844c-1.189,0.926-2.486,1.979-3.87,2.32c-0.653-1.55,1.92-10.002-1.803-8.608
		c-3.237,1.219-1.648,8.169-2.213,10.626c-0.838,3.636-5.206,6.278-8.247,8.325c-0.663,0.448-1.54,0.926-2.525,1.423
		c-0.01-2.193-0.029-4.377-0.029-6.58c0-18.327,2.34-34.159,3.188-52.087c0.361-7.672,0.536-15.422,0.624-23.202
		c3.237-2.466,6.298-5.118,9.154-8.121c4.65-4.904,10.616-9.983,14.009-15.91c1.306-2.281,1.979-5.333,2.388-7.887
		c0.283-1.765,0.224-8.501-1.989-3.968c-1.043,2.145-0.244,5.235-1.394,7.594c-1.316,2.72-3.51,5.011-5.859,6.834
		c-1.189,0.936-2.496,1.989-3.86,2.33c-0.653-1.54,1.911-9.992-1.804-8.608c-3.237,1.219-1.657,8.16-2.223,10.626
		c-0.829,3.636-5.206,6.278-8.247,8.325c-0.039,0.019-0.088,0.049-0.136,0.088c0.039-19.975-0.38-40.096,0.097-59.769l0.068-2.213
		c-3.714-1.219-7.458-2.359-11.24-3.402c-0.292,6.6-0.604,13.19-0.877,19.731c-1.063-0.536-2.028-1.053-2.739-1.54
		c-3.051-2.037-7.409-4.689-8.257-8.316c-0.565-2.466,1.024-9.417-2.213-10.626c-3.714-1.394-1.15,7.058-1.803,8.608
		c-1.375-0.341-2.671-1.394-3.86-2.33c-2.349-1.823-4.543-4.124-5.859-6.844c-0.663-1.355-0.673-2.973-0.77-4.494
		c-0.907-0.156-1.813-0.312-2.72-0.458c0.02,0.546,0.058,1.014,0.107,1.326c0.409,2.564,1.082,5.605,2.388,7.896
		c3.402,5.927,9.359,11.006,14.009,15.9c3.5,3.685,7.321,6.853,11.386,9.768c-0.078,2.418-0.146,4.826-0.195,7.214
		c-0.575,25.883-0.926,51.678-1.492,77.492c-2.184-1.082-4.397-2.135-5.752-3.032c-3.042-2.047-7.409-4.689-8.247-8.325
		c-0.565-2.466,1.024-9.417-2.213-10.626c-3.714-1.384-1.15,7.068-1.803,8.608c-1.375-0.341-2.671-1.394-3.86-2.32
		c-2.349-1.833-4.543-4.124-5.859-6.844c-1.15-2.359-0.361-5.459-1.394-7.594c-2.223-4.533-2.281,2.203-1.989,3.958
		c0.409,2.564,1.082,5.605,2.388,7.896c3.393,5.927,9.359,11.006,14.009,15.91c4.299,4.523,9.086,8.267,14.223,11.747l0.292-0.244
		c-0.419,17.479-0.955,34.968-1.745,52.506c-0.487,10.714-1.014,21.398-1.511,32.073c-1.15-0.585-2.184-1.131-2.944-1.648
		c-3.042-2.047-7.409-4.689-8.247-8.325c-0.565-2.457,1.024-9.407-2.213-10.616c-3.714-1.394-1.15,7.058-1.803,8.608
		c-1.375-0.351-2.671-1.394-3.87-2.33c-2.34-1.833-4.543-4.124-5.859-6.844c-1.141-2.359-0.351-5.45-1.394-7.584
		c-2.213-4.533-2.271,2.203-1.989,3.958c0.409,2.564,1.082,5.605,2.398,7.887c3.393,5.937,9.359,11.006,14.009,15.91
		c3.529,3.724,7.389,6.912,11.503,9.856c-1.024,22.539-1.862,45.078-1.882,67.831c-0.029,30.24,1.238,59.467,0.517,89.717
		c-0.049,1.891-0.088,3.792-0.127,5.703l-0.156,8.969c-0.244,16.183-0.244,32.57,0.039,48.919H337.704z M72.413,434.391
		c-17.967-18.493-33.175-39.677-44.941-62.918c0.536-26.282-1.56-51.98-1.511-78.448c0.049-26.867,2.583-53.432,5.323-80.066
		c-3.578-3.724-6.229-10.265-9.096-13.824c-3.675-4.553-8.247-8.832-12.566-12.888c0.604-2.135,1.228-4.25,1.881-6.366
		c4.016,3.344,11.162,7.74,15.744,9.251c1.414,0.468,3.968,2.047,6.132,3.49c0.283-2.788,0.565-5.576,0.838-8.374
		c2.057-21.164,3.324-42.26,4.309-63.337c8.784-14.116,18.903-27.306,30.182-39.404c-0.146,8.403-0.536,16.768-1.384,25.054
		c-0.37,3.627-0.877,7.175-1.453,10.685c1.228-0.634,2.33-1.238,3.159-1.794c3.763-2.525,9.164-5.791,10.197-10.275
		c0.409-1.804-0.107-5.557,0.234-8.628c-4.757-5.186-6.707-12.508-4.543-19.858c0.283-0.965,0.946-2.115,1.735-3.344
		c15.754-15.481,33.506-28.934,52.828-39.94c6.502,6.229,9.563,16.417,6.707,24.966c-2.154,6.493-6.941,12.956-11.503,17.713
		c-2.457,2.564-5.401,5.42-8.52,7.029c-2.349,1.209-5.732,0.877-7.721,1.94c-5.03,2.71-5.069,10.402-10.772,13.512
		c-0.702,0.38-1.375,0.663-2.037,0.868c-4.299,6.142-10.519,11.572-15.52,16.836c-5.011,5.284-10.568,9.7-16.514,13.794
		c-1.501,8.277-2.866,16.553-3.149,25.356l1.384,5.011l4.055,4.816l-9.193,8.608l4.055,4.806c0.273,8.774,0.673,17.538,1.053,26.341
		c1.102,25.727,0.38,53.413,1.18,79.042c1.082,34.442,2.154,43.879,2.154,66.73c0,26.975,6.717,50.371,7.058,77.151
		C72.228,430.092,72.306,432.246,72.413,434.391z M84.189,102.683L84.189,102.683c-0.302-0.702-0.058-2.564,0.136-4.553
		c1.745,0.458,3.393,1.014,5.011,1.375c-0.127,0.097-0.244,0.205-0.37,0.302C87.485,100.957,85.886,102.264,84.189,102.683z"/>
</g>
<path style="fill:#FCC86C;" d="M207.871,327.682c16.875,43.703,10.597,141.122-31.391,171.703C201.515,507.564,228.236,512,256,512
	c35.787,0,69.839-7.35,100.772-20.609c17.772-72.647-26.76-102.332-70.766-163.709H207.871z"/>
<path style="fill:#FF8D00;" d="M35.3,385.755c3.354,1.336,6.834,2.73,10.363,4.192l5.976-2.086l5.108,11.581l1.823-0.634
	l5.459-1.911l6.834,9.349l5.469-1.911l8.862,3.812c0.868,0.458,1.726,0.916,2.574,1.375l6.317-1.433l3.246,12.547l6.317-1.423
	l5.956,4.026c1.102,0.848,2.135,1.687,3.12,2.525l6.151,1.082l-0.448,5.674l5.956,0.838l-0.741,12.001l2.457,0.351l6.073-2.125
	l1.423,3.588l5.732-1.209l3.675,11.133l5.732-1.209l5.303,0.829c19.254,4.104,39.375,2.379,39.375,2.379l31.059,34.023l5.43,1.423
	l0.322,2.457l5.781,1.609l-1.696,11.893l2.925,0.819C151.114,505.069,76.819,456.228,35.3,385.755z"/>
<g>
	<path style="fill:#F37E16;" d="M489.364,361.393c-7.701,2.008-15.871,4.328-23.797,6.912l-1.141,0.38l-2.769,4.67l-10.841-0.614
		l-2.769,4.67l-1.228,1.258l-1.111,1.131l-9.866-0.946l-1.531,5.605l-3.198,2.554l-0.556,0.448l-0.224,0.175l-7.672,0.741
		l0.01,5.908l-3.188,2.964l-0.819,0.76l-2.086,1.014l2.262,5.108l6.249-1.482l2.895,12.508l6.249-1.482l5.284,0.994
		c1.667,0.205,2.739,0.263,2.739,0.263l-4.25,5.713l-0.059,0.088l-0.058,0.068l-0.039,0.77l0.4,6.307l-0.39,0.039l-0.663,5.157
		l-10.07-2.554l-0.663,5.147l1.872,8.725l0.39,0.546C454.2,421.64,474.955,393.261,489.364,361.393z"/>
	<path style="fill:#F37E16;" d="M73.593,346.185c0,0,19.234,1.93,33.584,6.181l0.526,0.156l6.268-1.472l2.652,12.615l6.268-1.472
		l-8.725,7.779c-1.745,0.38-3.042,0.507-3.042,0.507s-0.663,1.004-1.784,2.388l-0.419,0.517l-2.154,4.709l-9.398-4.377l-2.154,4.709
		l-3.831-5.635l-0.507-0.751l-0.263-0.39l-0.097-0.273l-5.752,2.505l-4.865-3.958l-3.656-1.813l5.196-11.747l-5.761-2.856
		l-1.277-4.319l-0.049-0.146C73.885,347.306,73.593,346.185,73.593,346.185z"/>
</g>
<path style="fill:#792511;" d="M238.326,361.13c-0.565,0.127-1.063,0.341-1.423,0.673c0,0-0.107,0.01-0.292,0.029
	c0.585-0.283,0.868-0.809,0.868-0.809S237.78,361.061,238.326,361.13z M234.748,308.916c7.653-1.872,4.699,0.487,3.597,3.851
	c-0.887,2.7-1.482,5.371-2.856,6.688c0.351,0.253,0.692,0.546,1.043,0.858l1.462,0.76l-0.936,0.107l2.7,1.911l-1.189-0.058
	l2.544,1.969l-1.852-0.049l2.037,1.872l-0.936,0.283c4.182,0.068,8.121,1.852,11.698,4.094c2.252,1.404,4.397,3.315,6.132,5.527
	c0-2.808,0.098-8.043,0.936-9.749c0,0,0.4,3.48,0.604,3.938c0,0,0.195-8.16,3.422-12.088l-0.351,3.578c0,0,4.884-7.653,8.16-8.764
	l-1.92,3.373c0,0,7.906-5.04,12.186-5.186l-3.373,2.925c0,0,10.226-2.973,14.506-0.858c0,0-2.622,0.302-2.866,0.799
	c0,0,5.888,1.365,7.701,3.782s1.706,2.515,1.706,2.515l-3.422-1.862c0,0,4.933,5.586,5.693,8.608l-3.471-3.519
	c0,0,3.168,7.243,3.266,10.119l-2.661-3.782c0,0,2.057,8.92,1.16,10.977l-1.823-4.933c0,0-0.897,4.835-1.862,6.649
	c-0.955,1.813-1.209,2.418-1.209,2.418l-0.292-3.578l-0.858,1.258l-2.876-4.377v1.511l-3.821-5.138l0.049,1.959
	c0,0-4.484-3.217-5.888-3.071l2.262,1.921c0,0-6.346-1.56-7.857-0.712l2.574,1.014c0,0-4.133,0.497-4.582,1.404l2.466,0.205
	l-3.675,2.018l1.911,0.302l-2.817,2.359l1.959,0.205c0,0-2.564,2.817-3.929,3.578c-1.355,0.751-1.511,0.955-1.511,0.955l1.969-0.156
	l-2.954,1.716l-1.336,2.671l2.32-0.507l-3.422,1.959l-1.258,1.667l1.813,0.253l-1.959,1.209c0,0-1.774,2.496-4.962,2.837
	c-1.677,1.433-3.285,2.106-3.159,2.369c0.351,0.731,3.5,2.291,2.262,3.86c-1.228,1.55-17.011-0.712-17.011-0.712
	s-0.517,1.102-1.599,1.121c-1.082,0.02-0.975-0.643-0.975-0.643s-0.497,0.263-1.102-0.107c-0.614-0.37-0.468-0.936-0.468-0.936
	s-1.102,0.458-1.17-0.868c-0.039-0.663,0.526-1.014,1.102-1.209c-0.985-0.01-0.877-0.565-0.877-0.565s-0.497,0.234-1.111-0.097
	c-0.604-0.322-0.458-0.819-0.458-0.819s-1.102,0.4-1.18-0.76c-0.068-1.16,2.232-1.248,2.232-1.248
	c0.565-0.468,1.482-0.663,2.447-0.721c-3.49-3.051-4.026-6.639-3.919-8.969c-0.731-0.448-1.297-0.868-1.297-0.868l-0.078,0.624
	l-1.18-1.579l0.117,0.955c-0.799-0.604-1.609-1.93-1.609-1.93v0.819c0,0-0.351,0-1.228-0.877c-0.887-0.887-1.316-4.738-1.316-4.738
	c-0.4,1.014-2.359,1.238-2.359,1.238s-0.955,1.579-1.687,1.579c-0.731,0-0.985-0.497-0.985-0.497
	c-1.433,0.146-1.306-0.936-1.306-0.936c-0.429-0.429-0.331-1.657,0.224-2.769c0.556-1.102,3.519-3.295,6.142-3.753
	c2.622-0.448,3.402,5.849,3.402,5.849l0.595-0.916c-0.341-1.102-0.556-2.33-0.526-3.636l-1.959-2.115c0,0-1.306,0.799-2.32,0.604
	c-1.004-0.205-1.209-1.521-1.209-1.521s-0.673,0.76-2.086,0.331c-1.414-0.429-1.287-1.852-1.287-1.852s-0.302,0.468-1.228,0
	c-0.117,0.068-0.253,0.107-0.4,0.107c-0.439,0-0.79-0.37-0.79-0.829c0-0.253,0.117-0.487,0.302-0.643
	c-0.039-1.345,0.809-3.51,0.985-5.674c0.224-2.652,2.31-5.216,5.157-6.678c0.39-0.195,0.79-0.38,1.189-0.556
	c-0.731-2.808-0.926-7.156,3.588-9.544C234.66,306.43,235.05,307.083,234.748,308.916z"/>
<g>
</g>
<g>
</g>
<g>
</g>
<g>
</g>
<g>
</g>
<g>
</g>
<g>
</g>
<g>
</g>
<g>
</g>
<g>
</g>
<g>
</g>
<g>
</g>
<g>
</g>
<g>
</g>
<g>
</g>
</svg>
