<?xml version="1.0" encoding="iso-8859-1"?>
<!-- Generator: Adobe Illustrator 19.0.0, SVG Export Plug-In . SVG Version: 6.00 Build 0)  -->
<svg version="1.1" id="Layer_1" xmlns="http://www.w3.org/2000/svg" xmlns:xlink="http://www.w3.org/1999/xlink" x="0px" y="0px"
	 viewBox="0 0 512 512" style="enable-background:new 0 0 512 512;" xml:space="preserve">
<path style="fill:#80E2F2;" d="M256,0c141.386,0,256,114.614,256,256c0,141.386-114.614,256-256,256C114.614,512,0,397.386,0,256
	C0,114.614,114.614,0,256,0z"/>
<path style="fill:#FFFF00;" d="M200.547,27.769c24.979,0,45.226,20.247,45.226,45.224c0,24.979-20.247,45.226-45.226,45.226
	c-24.978,0-45.224-20.247-45.224-45.226C155.322,48.016,175.569,27.769,200.547,27.769z"/>
<path style="fill:#6C4C40;" d="M236.977,181.804c-0.447,1.688-9.735,70.148-9.735,70.148l19.74,1.667l-0.208-69.11L236.977,181.804z
	"/>
<path style="fill:#2E7C32;" d="M203.016,58.832c0,0,32.623-6.496,28.876,1.901c-3.745,8.395-45.712,30.27-45.712,30.27
	s33.32-4.778,28.317,6.643c-5.007,11.419-46.488,30.586-46.488,30.586s53.637-8.243,38.966,6.969
	c-14.669,15.211-67.823,40.828-67.823,40.828s67.582-14.289,65.418,2.664c-2.169,16.953-29.739,21.811-35.48,32.532
	c0,0,66.689-11.845,73.967-2.776c7.591,0.014,74.848,11.764,74.968,8.828c-4.914-11.041-33.441-19.145-34.316-36.187
	c-0.88-17.047,65.466,1.299,65.466,1.299s-51.093-28.77-64.58-44.839c-13.483-16.064,39.408-4.593,39.408-4.593
	s-39.934-21.633-44.065-33.329c-4.128-11.7,28.754-4.918,28.754-4.918s-40.214-24.361-43.316-32.964s28.954-0.149,28.954-0.149
	c-26.995-22.691-36.904-46.447-43.476-58.933C243.351,14.727,231.664,37.827,203.016,58.832z"/>
<path style="fill:#388D3C;" d="M203.016,58.832c0,0,32.623-6.496,28.878,1.901c-3.747,8.393-45.714,30.27-45.714,30.27
	s33.317-4.778,28.313,6.643c-5.003,11.419-46.484,30.591-46.484,30.591s53.637-8.248,38.97,6.964
	c-14.674,15.211-67.827,40.828-67.827,40.828s67.582-14.289,65.418,2.664c-2.167,16.953-29.742,21.809-35.482,32.529
	c-13.629,4.691,55.098-8.288,73.969-2.774l8.402-204.623l-0.605-1.164C243.351,14.727,231.669,37.827,203.016,58.832z"/>
<path style="fill:#7EB953;" d="M1.347,229.603h193.515c-1.739,3.09-3.333,6.301-6.066,10.021h6.066
	c-2.394,4.256-4.517,8.743-9.715,14.472c-4.863,5.36-12.418,11.808-14.855,19.667c1.399,4.445,4.785,9.263,11.102,14.493
	c24.219,20.05,91.439,46.145,100.311,66.29c1.5,3.409,1.326,6.646-0.14,9.733l0.14,0.289c8.874,20.144-40.601,34.341-71.605,46.657
	c-30.999,12.317-43.524,22.755-77.345,24.945c-15.932,1.033-36.588,0.236-58.422,0.185C28.392,390.084,0,326.359,0,256
	C0,247.087,0.458,238.28,1.347,229.603z M510.653,229.603C511.542,238.28,512,247.087,512,256c0,50.74-14.764,98.027-40.223,137.811
	l-0.932-0.747c-18.893-15.031-49.164-31.313-65.343-46.555c-16.178-15.239-18.267-29.434-30.79-37.472
	c-12.527-8.038-35.491-9.917-59.9-17.16c-24.409-7.245-50.265-19.855-68.95-26.221c-18.682-6.368-30.197-6.491-34.962-10.679
	c-3.088-2.712-3.342-7.131-1.427-11.691c-2.233-3.562-1.287-8.785,1.988-13.684H510.653z"/>
<path style="fill:#E9BE76;" d="M187.556,251.082c-0.719,0.909-0.181,0.41-2.41,3.014c-2.229,2.604-29.405,16.424-5.188,36.473
	c24.219,20.052,92.875,53.853,101.749,73.999c8.872,20.144-40.606,34.341-71.607,46.657c-30.999,12.317-43.527,22.755-77.345,24.947
	c-15.932,1.033-36.588,0.236-58.425,0.183C120.709,483.072,184.972,512,256,512c90.647,0,170.287-47.116,215.777-118.19
	l-0.932-0.747c-18.893-15.031-49.164-31.315-65.343-46.555c-16.178-15.239-18.265-29.434-30.793-37.472
	c-12.525-8.038-35.488-9.917-59.897-17.16c-24.409-7.245-50.265-19.853-68.95-26.221c-15.759-5.369-28.241-6.789-33.986-10.284
	l-0.589-0.074l-0.002-0.002l-0.385-0.319c-1.514-1.331-2.348-3.072-2.577-5.039c-6.556,0.135-13.249,0.27-20.05,0.403
	L187.556,251.082z"/>
<path style="fill:#6C4C40;" d="M132.251,211.534c-0.44,1.659-9.566,68.932-9.566,68.932l19.397,1.64l-0.204-67.913L132.251,211.534z
	"/>
<path style="fill:#2E7C32;" d="M98.879,90.695c0,0,32.057-6.384,28.374,1.867c-3.679,8.251-44.919,29.746-44.919,29.746
	s32.742-4.693,27.826,6.528c-4.92,11.222-45.682,30.055-45.682,30.055s52.707-8.1,38.29,6.849
	c-14.415,14.949-66.648,40.12-66.648,40.12s66.412-14.042,64.284,2.618c-2.133,16.66-29.224,21.434-34.863,31.965
	c0,0,65.532-11.638,72.683-2.726c7.459,0.014,73.552,11.559,73.669,8.675c-4.829-10.848-32.862-18.813-33.723-35.559
	c-0.863-16.751,64.332,1.275,64.332,1.275s-50.206-28.273-63.459-44.06c-13.249-15.786,38.725-4.515,38.725-4.515
	s-39.243-21.257-43.302-32.751c-4.057-11.497,28.254-4.833,28.254-4.833s-39.516-23.937-42.564-32.394
	c-3.049-8.452,28.452-0.144,28.452-0.144c-26.528-22.299-36.265-45.641-42.723-57.914C138.516,47.352,127.031,70.052,98.879,90.695z
	"/>
<path style="fill:#388D3C;" d="M98.879,90.695c0,0,32.057-6.384,28.376,1.867c-3.681,8.249-44.921,29.746-44.921,29.746
	s32.74-4.693,27.822,6.528c-4.916,11.222-45.677,30.06-45.677,30.06s52.707-8.104,38.294,6.844
	c-14.419,14.949-66.652,40.12-66.652,40.12s66.412-14.042,64.284,2.618c-2.13,16.66-29.226,21.431-34.866,31.963
	c-13.393,4.611,54.141-8.143,72.686-2.724l8.258-201.077l-0.596-1.144C138.516,47.352,127.036,70.052,98.879,90.695z"/>
<path style="fill:#6C4C40;" d="M65.553,257.972c-0.46,1.738-10.024,72.224-10.024,72.224l20.325,1.718l-0.216-71.156L65.553,257.972
	z"/>
<path style="fill:#2E7C32;" d="M32.563,130.996c7.137-1.275,31.04-5.044,27.753,2.323c-3.083,6.916-31.347,22.71-42.535,28.752
	c-0.259,0.653-0.499,1.314-0.751,1.97c8.768-0.882,29.457-2.032,25.375,7.284c-3.34,7.621-22.448,18.589-35.486,25.364
	c-0.373,1.574-0.726,3.154-1.07,4.74c15.274-1.523,39.435-2.453,28.812,8.562c-6.442,6.68-20.089,15.308-33.622,23.007
	c-0.408,4.563-0.687,9.16-0.857,13.788c16.823-1.402,33.1-0.6,32.002,7.985c-1.798,14.044-20.515,20.027-30.844,27.577
	c0.168,1.632,0.36,3.253,0.557,4.875c17.086-2.737,63.808-9.426,69.912-1.814c7.816,0.014,77.063,12.111,77.187,9.089
	c-5.06-11.368-34.43-19.713-35.333-37.259c-0.905-17.551,67.403,1.337,67.403,1.337s-52.604-29.622-66.49-46.165
	c-13.881-16.54,40.574-4.73,40.574-4.73s-41.117-22.272-45.368-34.314c-4.252-12.047,29.604-5.065,29.604-5.065
	s-41.403-25.08-44.596-33.94c-3.195-8.858,29.81-0.151,29.81-0.151C96.809,110.846,86.606,86.388,79.84,73.531
	c-7.451,11.982-18.916,34.538-46.197,55.534C33.276,129.704,32.923,130.352,32.563,130.996z"/>
<path style="fill:#388D3C;" d="M32.563,130.996c7.137-1.275,31.04-5.044,27.755,2.323c-3.085,6.913-31.349,22.707-42.537,28.752
	c-0.259,0.653-0.499,1.314-0.751,1.97c8.768-0.882,29.455-2.032,25.371,7.284c-3.337,7.619-22.443,18.589-35.482,25.369
	c-0.373,1.574-0.726,3.154-1.07,4.74c15.271-1.521,39.438-2.458,28.816,8.557c-6.444,6.68-20.089,15.308-33.627,23.007
	c-0.408,4.561-0.687,9.16-0.857,13.788c16.823-1.402,33.1-0.6,32.002,7.985c-1.796,14.042-20.517,20.025-30.846,27.573
	c0.218,2.132,0.463,4.258,0.733,6.376c17.121-1.896,56.091-7.3,69.738-3.312l8.652-210.68l-0.623-1.198
	c-7.451,11.985-18.912,34.541-46.197,55.536C33.276,129.704,32.923,130.352,32.563,130.996z"/>
<path style="fill:#6C4C40;" d="M308.856,208.488c-0.442,1.674-9.65,69.541-9.65,69.541l19.569,1.654l-0.206-68.513L308.856,208.488z
	"/>
<path style="fill:#2E7C32;" d="M275.191,86.583c0,0,32.339-6.441,28.623,1.883c-3.711,8.324-45.315,30.007-45.315,30.007
	s33.03-4.734,28.071,6.585c-4.963,11.323-46.085,30.323-46.085,30.323s53.172-8.173,38.627,6.907
	c-14.541,15.081-67.235,40.477-67.235,40.477s66.997-14.167,64.853,2.639c-2.151,16.806-29.483,21.623-35.173,32.25
	c0,0,66.112-11.742,73.326-2.751c7.525,0.014,74.2,11.661,74.319,8.753c-4.872-10.947-33.15-18.98-34.021-35.875
	c-0.87-16.898,64.901,1.287,64.901,1.287s-50.65-28.521-64.021-44.45c-13.366-15.927,39.067-4.554,39.067-4.554
	s-39.589-21.445-43.682-33.04c-4.093-11.597,28.504-4.874,28.504-4.874S340.084,98,337.01,89.469
	c-3.076-8.528,28.704-0.146,28.704-0.146c-26.761-22.497-36.586-46.044-43.1-58.423C315.176,42.858,303.59,65.757,275.191,86.583z"
	/>
<path style="fill:#388D3C;" d="M275.191,86.583c0,0,32.339-6.441,28.626,1.883c-3.714,8.321-45.318,30.007-45.318,30.007
	s33.028-4.734,28.067,6.585c-4.959,11.323-46.08,30.328-46.08,30.328s53.172-8.177,38.631,6.902
	c-14.545,15.081-67.239,40.477-67.239,40.477s66.997-14.167,64.853,2.639c-2.149,16.806-29.485,21.621-35.175,32.247
	c-13.51,4.653,54.62-8.216,73.327-2.749l8.331-202.853l-0.6-1.152C315.176,42.858,303.595,65.757,275.191,86.583z"/>
<path style="fill:#6C4C40;" d="M401.878,230.164c-0.46,1.738-10.023,72.223-10.023,72.223l20.324,1.718l-0.215-71.156
	L401.878,230.164z"/>
<path style="fill:#2E7C32;" d="M366.912,103.554c0,0,33.587-6.688,29.73,1.956c-3.855,8.645-47.065,31.166-47.065,31.166
	s34.306-4.918,29.155,6.84c-5.154,11.758-47.863,31.491-47.863,31.491s55.224-8.487,40.118,7.174
	c-15.102,15.663-69.83,42.037-69.83,42.037s69.582-14.713,67.353,2.742c-2.233,17.454-30.619,22.457-36.528,33.493
	c0,0,68.661-12.195,76.154-2.856c7.815,0.014,77.063,12.111,77.187,9.089c-5.059-11.368-34.43-19.713-35.333-37.259
	c-0.729-14.119,43.336-4.655,60.594-0.415l-0.266-2.337c-14.825-8.695-48.68-29.29-59.414-42.076
	c-13.881-16.54,40.573-4.73,40.573-4.73s-41.116-22.272-45.368-34.314c-4.252-12.047,29.604-5.065,29.604-5.065
	s-41.403-25.08-44.596-33.94c-3.195-8.858,29.81-0.152,29.81-0.152c-17.195-14.456-27.656-29.333-34.739-41.62
	c-4.636-4.13-9.426-8.093-14.355-11.882C403.894,66.091,391.442,85.566,366.912,103.554z"/>
<path style="fill:#388D3C;" d="M366.912,103.554c0,0,33.587-6.688,29.732,1.956c-3.858,8.642-47.068,31.166-47.068,31.166
	s34.305-4.918,29.151,6.84c-5.15,11.758-47.858,31.496-47.858,31.496s55.224-8.491,40.122,7.17
	c-15.107,15.663-69.834,42.037-69.834,42.037s69.582-14.713,67.353,2.742c-2.231,17.454-30.621,22.455-36.531,33.491
	c-14.032,4.831,56.727-8.533,76.157-2.854l8.257-201.112c-1.507-1.211-3.026-2.41-4.56-3.587
	C403.894,66.094,391.444,85.569,366.912,103.554z"/>
<path style="fill:#6C4C40;" d="M447.986,299.307c-0.46,1.738-10.024,72.223-10.024,72.223l20.325,1.718l-0.216-71.156
	L447.986,299.307z"/>
<path style="fill:#2E7C32;" d="M413.02,172.697c0,0,33.588-6.689,29.73,1.956c-3.855,8.645-47.065,31.166-47.065,31.166
	s34.307-4.918,29.155,6.84c-5.154,11.758-47.863,31.491-47.863,31.491s55.224-8.487,40.118,7.174
	c-15.102,15.663-69.83,42.037-69.83,42.037s69.582-14.713,67.354,2.742c-2.234,17.454-30.619,22.457-36.529,33.493
	c0,0,68.662-12.195,76.154-2.856c4.226,0.009,26.429,3.55,45.943,6.324c1.949-6.185,3.675-12.466,5.158-18.843
	c-5.078-4.432-8.929-9.471-9.247-15.651c-0.266-5.124,5.376-7.142,13.49-7.431c1.099-7.999,1.823-16.115,2.169-24.329
	c-6.235-4.703-11.528-9.238-14.745-13.068c-6.874-8.191,3.01-9.428,14.743-8.592c-0.177-4.207-0.451-8.388-0.829-12.539
	c-8.865-6.187-16.947-12.926-18.708-17.913c-2.304-6.531,6.59-7.468,15.219-6.959c-0.536-2.813-1.111-5.609-1.739-8.39
	c-12.005-7.985-26.626-18.533-28.472-23.655c-2.119-5.873,11.677-4.022,21.215-2.112c-1.047-3.081-2.164-6.127-3.323-9.153
	c-19.015-19.695-27.149-38.741-32.846-49.564C454.549,127.285,442.516,151.069,413.02,172.697z"/>
<path style="fill:#388D3C;" d="M413.02,172.697c0,0,33.588-6.689,29.732,1.956c-3.857,8.642-47.068,31.166-47.068,31.166
	s34.304-4.918,29.151,6.84c-5.149,11.758-47.858,31.496-47.858,31.496s55.224-8.491,40.122,7.17
	c-15.107,15.663-69.834,42.037-69.834,42.037s69.582-14.713,67.354,2.742c-2.232,17.454-30.621,22.455-36.531,33.491
	c-14.033,4.831,56.727-8.532,76.156-2.854l8.652-210.68l-0.623-1.198C454.549,127.285,442.521,151.069,413.02,172.697z"/>
<path style="fill:#6C4C40;" d="M166.897,311.014c-0.515,1.94-11.185,80.582-11.185,80.582l22.677,1.918l-0.24-79.391
	L166.897,311.014z"/>
<path style="fill:#2E7C32;" d="M127.883,169.753c0,0,37.475-7.463,33.17,2.184c-4.302,9.643-52.512,34.771-52.512,34.771
	s38.276-5.486,32.529,7.632c-5.749,13.119-53.401,35.136-53.401,35.136s61.615-9.469,44.761,8.003
	c-16.85,17.477-77.911,46.903-77.911,46.903s77.633-16.415,75.148,3.06c-2.492,19.473-34.163,25.055-40.757,37.369
	c0,0,76.608-13.606,84.969-3.189c8.72,0.017,85.981,13.513,86.118,10.143c-5.644-12.686-38.414-21.995-39.421-41.573
	c-1.008-19.58,75.206,1.493,75.206,1.493s-58.692-33.051-74.186-51.509c-15.487-18.453,45.27-5.278,45.27-5.278
	s-45.874-24.848-50.619-38.283c-4.744-13.441,33.031-5.651,33.031-5.651s-46.195-27.982-49.757-37.868
	c-3.566-9.882,33.26-0.167,33.26-0.167c-31.01-26.07-42.395-53.355-49.945-67.702C174.218,119.087,160.792,145.622,127.883,169.753z
	"/>
<path style="fill:#388D3C;" d="M127.883,169.753c0,0,37.475-7.463,33.173,2.184c-4.304,9.641-52.515,34.771-52.515,34.771
	s38.274-5.486,32.524,7.632c-5.745,13.119-53.396,35.141-53.396,35.141s61.615-9.474,44.766,7.999
	c-16.855,17.477-77.915,46.903-77.915,46.903s77.633-16.415,75.148,3.06c-2.49,19.473-34.165,25.053-40.759,37.367
	c-15.657,5.39,63.292-9.52,84.971-3.187l9.653-235.059l-0.696-1.337C174.218,119.087,160.797,145.622,127.883,169.753z"/>
<g>
</g>
<g>
</g>
<g>
</g>
<g>
</g>
<g>
</g>
<g>
</g>
<g>
</g>
<g>
</g>
<g>
</g>
<g>
</g>
<g>
</g>
<g>
</g>
<g>
</g>
<g>
</g>
<g>
</g>
</svg>
