<?xml version="1.0" encoding="iso-8859-1"?>
<!-- Generator: Adobe Illustrator 19.0.0, SVG Export Plug-In . SVG Version: 6.00 Build 0)  -->
<svg version="1.1" id="Layer_1" xmlns="http://www.w3.org/2000/svg" xmlns:xlink="http://www.w3.org/1999/xlink" x="0px" y="0px"
	 viewBox="0 0 512 512" style="enable-background:new 0 0 512 512;" xml:space="preserve">
<path style="fill:#B1E3FB;" d="M255.998,0C397.386,0,512,114.614,512,255.998C512,397.386,397.386,512,255.998,512
	C114.614,512,0,397.386,0,255.998C0,114.614,114.614,0,255.998,0z"/>
<path style="fill:#903B13;" d="M321.199,228.927l-0.42-8.035l-0.005-0.009l12.768-0.667l14.906-0.786
	c-2.883-0.978-5.916-2.7-8.986-5.089l23.503-1.247c-0.831-3.568-1.791-7.039-2.878-10.434l-0.219-0.681l-0.096-0.288l-0.128-0.384
	l-0.228-0.681l-0.105-0.315l-0.123-0.356l-0.228-0.672l-0.123-0.352l-0.114-0.315l-0.238-0.658l-0.142-0.384l-0.1-0.283
	l-0.247-0.667l-0.155-0.411l-0.096-0.247l-0.256-0.653l-0.164-0.443l-0.087-0.215l-0.256-0.653l-0.187-0.471l-0.078-0.183
	l-0.265-0.644l-0.206-0.498l-0.064-0.151l-0.27-0.644l-0.224-0.525l-0.05-0.114l-0.279-0.64l-0.238-0.562l-0.037-0.078l-0.288-0.64
	l-0.256-0.58l-0.032-0.05l-0.283-0.635l-0.279-0.608l-0.014-0.023l-0.292-0.63l-0.297-0.626l-0.005-0.005l-0.297-0.617l-0.311-0.626
	l-0.009-0.037l-0.297-0.58l-0.306-0.621l-0.037-0.069l-0.274-0.548l-0.315-0.612l-0.32-0.608l-0.315-0.617l-0.073-0.132
	l-0.256-0.475l-0.329-0.608l-0.078-0.16l-0.251-0.443l-0.329-0.612l-0.1-0.178l-0.233-0.42l-0.333-0.598l-0.123-0.219l-0.224-0.375
	l-0.338-0.598l-0.137-0.251l-0.206-0.347l-0.352-0.594l-0.16-0.27l-0.187-0.315l-0.361-0.594l-0.174-0.297l-0.174-0.292l-0.365-0.58
	l-0.196-0.324l-0.16-0.26l-0.361-0.585l-0.224-0.352l-0.142-0.233l-0.37-0.576l-0.242-0.375l-0.128-0.201l-0.37-0.58l-0.265-0.397
	l-0.114-0.169l-0.379-0.571l-0.288-0.439l-0.087-0.132l-0.388-0.571l-0.311-0.452l-0.073-0.114l-0.384-0.571l-0.338-0.48
	l-0.059-0.087l-0.388-0.557l-0.361-0.507l-0.032-0.059l-0.397-0.553h-0.009c-6.93-9.716-14.897-18.738-23.521-27.308
	c3.929,12.083,5.468,23.183,5.404,33.055l-0.005,0.178v0.169l-0.009,0.16v0.119v0.05c-0.023,1.357-0.059,2.686-0.146,3.983
	l-0.018,0.155l-0.005,0.155c-0.356,5.208-1.165,10.032-2.325,14.431l0.005,0.005l-0.009-0.023l-0.32-0.644l-0.032-0.05l-0.005-0.014
	l-4.714-89.229l-4.591,0.242c-8.026,9.666-15.755,19.488-22.809,29.656l-0.292,0.429l-0.297,0.425l-0.302,0.439l-0.292,0.429
	l-0.005,0.009l-0.292,0.425l-0.283,0.429l-0.292,0.434l-0.297,0.429l-0.059,0.091l-0.233,0.343l-0.283,0.434l-0.292,0.434
	l-0.288,0.434l-0.105,0.164l-0.178,0.265l-0.288,0.434l-0.288,0.448l-0.288,0.429l-0.151,0.238l-0.123,0.196l-0.283,0.439
	l-0.288,0.434l-0.279,0.443l-0.201,0.315l-0.073,0.123l-0.288,0.439l-0.274,0.443l-0.274,0.434l-0.256,0.393l-0.027,0.05
	l-0.274,0.439l-0.27,0.448l-0.279,0.439l-0.265,0.439l-0.027,0.032l-0.247,0.416l-0.274,0.443l-0.265,0.439l-0.274,0.448l-0.064,0.1
	l-0.201,0.343l-0.265,0.448l-0.26,0.448l-0.265,0.448l-0.11,0.183l-0.155,0.26l-0.265,0.452l-0.256,0.443l-0.265,0.452l-0.521,0.895
	l-0.251,0.452l-0.256,0.448l-0.192,0.343l-0.064,0.119l-0.251,0.448l-0.256,0.452l-0.247,0.457l-0.238,0.42l-0.014,0.027
	l-0.247,0.457l-0.256,0.457l-0.242,0.448l-0.247,0.457l-0.027,0.05l-0.219,0.407l-0.242,0.461l-0.238,0.457l-0.242,0.457
	l-0.069,0.128l-0.169,0.333l-0.242,0.457l-0.238,0.457l-0.233,0.466l-0.114,0.206l-0.123,0.256l-0.233,0.461
	c-2.691,5.336-5.148,10.781-7.314,16.386l-0.119,0.311l-0.123,0.311l-0.023,0.069l-0.091,0.247L262,174.443l-0.114,0.315
	l-0.119,0.306l-0.123,0.315l-0.11,0.315l-0.091,0.238l-0.023,0.073l-0.114,0.311l-0.114,0.32l-0.119,0.311l-0.105,0.315l-0.114,0.32
	l-0.119,0.311l-0.032,0.096l-0.073,0.219l-0.114,0.32l-0.105,0.315l-0.105,0.315l-0.119,0.315l-0.105,0.315l-0.091,0.26
	l-0.014,0.064l-0.11,0.315l-0.105,0.315l-0.105,0.32l-0.105,0.315l-0.105,0.32l-0.1,0.32l-0.041,0.11l-0.059,0.21l-0.11,0.32
	l-0.096,0.32l-0.105,0.324l-0.096,0.315l-0.096,0.32l-0.1,0.288l-0.005,0.041l-0.096,0.32l-0.096,0.32l-0.1,0.324l-0.096,0.32
	l-0.096,0.324l-0.096,0.32l-0.187,0.653l-0.1,0.32l-0.082,0.329l-0.1,0.324l-0.087,0.324l-0.091,0.306l-0.005,0.018l-0.087,0.329
	l-0.091,0.329l-0.087,0.329l-0.087,0.324l-0.087,0.329l-0.087,0.329l-0.041,0.146l-0.046,0.183l-0.087,0.324l-0.087,0.329
	l-0.087,0.329l-0.073,0.333l-0.087,0.329l-0.087,0.324l-0.078,0.333l-0.087,0.329l-0.073,0.333
	c-2.357,9.767-3.819,19.931-4.175,30.794l46.965-2.48l0.009,0.005l17.341-0.914l0.42,8.035l-64.315,3.39l0.037,0.069l0.037,0.055
	l0.037,0.064l0.041,0.059l0.037,0.064l0.041,0.059l0.032,0.064l0.041,0.059l0.037,0.064l0.041,0.055l0.027,0.046l0.009,0.023
	l0.037,0.055l0.046,0.064l0.032,0.059l0.046,0.064l0.032,0.055l0.046,0.064l0.041,0.059l0.032,0.059l0.041,0.064l0.032,0.059
	l0.027,0.023l0.018,0.037l0.041,0.059l0.032,0.055l0.041,0.064l0.041,0.059l0.041,0.055l0.037,0.064l0.041,0.059l0.041,0.055
	l0.073,0.123l0.009,0.005l0.032,0.05l0.046,0.064l0.041,0.059l0.032,0.055l0.041,0.059l0.046,0.064l0.037,0.055l0.041,0.055
	l0.041,0.055l0.005,0.009l0.032,0.059l0.037,0.041l0.005,0.014l0.041,0.055l0.041,0.059l0.041,0.055l0.041,0.059l0.041,0.064
	l0.041,0.055l0.041,0.055l0.041,0.055l0.041,0.059l0.041,0.055l0.018,0.037l0.023,0.018l0.041,0.064l0.041,0.055l0.041,0.059
	l0.041,0.055l0.041,0.055l0.041,0.059l0.041,0.055l0.041,0.059l0.041,0.055l0.041,0.055l0.064,0.091l0.069,0.082l0.059,0.091
	l0.064,0.087l0.069,0.087l0.064,0.087l0.014,0.018l0.055,0.064l0.064,0.091l0.069,0.082l0.064,0.091l0.059,0.087l0.064,0.082
	l0.037,0.032l0.037,0.05l0.069,0.087l0.064,0.087l0.064,0.082l0.064,0.082l0.069,0.091l0.206,0.247l0.064,0.082l0.069,0.087
	l0.064,0.082l0.059,0.064l0.014,0.014l0.064,0.087l0.064,0.082l0.073,0.082l0.064,0.082l0.142,0.164l0.009,0.005l0.265,0.324
	l0.064,0.078l0.073,0.078l0.023,0.018l0.114,0.146l0.073,0.073l0.064,0.082l0.073,0.082l0.073,0.073l0.037,0.041l0.027,0.041
	l0.073,0.082l0.073,0.073l0.073,0.082l0.132,0.155l0.059,0.05l0.014,0.032l0.073,0.073l0.073,0.078l0.073,0.073l0.073,0.082
	l0.069,0.073l0.059,0.069l0.014,0.005l0.069,0.082l0.073,0.073l0.073,0.082l0.069,0.073l0.073,0.073l0.069,0.073l0.014,0.014
	l0.059,0.064l0.073,0.073l0.082,0.087l0.096,0.096l0.082,0.087l0.082,0.087l0.032,0.032l0.059,0.05l0.082,0.096l0.091,0.082
	l0.082,0.087l0.069,0.064l0.023,0.023l0.087,0.082l0.091,0.087l0.091,0.087l0.082,0.087l0.014,0.018l0.078,0.064l0.087,0.087
	l0.087,0.087l0.087,0.082l0.05,0.046l0.041,0.037l0.096,0.087l0.087,0.082l0.082,0.082l0.091,0.087l0.091,0.082l0.091,0.082
	l0.087,0.078l0.091,0.087l0.032,0.023l0.059,0.059l0.091,0.078l0.087,0.082l0.091,0.078l0.069,0.069l0.027,0.014l0.091,0.078
	l0.091,0.087l0.087,0.073l0.187,0.16l0.091,0.082l0.091,0.078l0.096,0.073l0.046,0.05l0.041,0.037l0.091,0.078l0.096,0.073
	l0.087,0.078l0.087,0.069l0.014,0.014l0.091,0.078l0.096,0.073l0.096,0.073l0.087,0.078l0.032,0.027l0.064,0.046l0.096,0.078
	l0.091,0.078l0.096,0.073l0.064,0.05l0.032,0.023l0.096,0.078l0.091,0.073l0.096,0.078l0.096,0.073l0.009,0.005l0.087,0.069
	l0.096,0.069l0.096,0.073l0.096,0.073l0.046,0.032l0.05,0.046l0.096,0.069l0.096,0.073l0.128,0.091l0.119,0.091l0.082,0.055
	l0.041,0.027l0.119,0.096l0.128,0.091l0.041,0.023l0.082,0.059l0.128,0.096l0.123,0.082v0.009l0.123,0.082l0.128,0.082l0.073,0.064
	l0.055,0.027l0.123,0.082l0.128,0.091l0.037,0.023l0.087,0.064l0.123,0.082l0.123,0.087l0.123,0.082l0.137,0.087l0.082,0.046
	l0.041,0.041l0.132,0.078l0.123,0.087l0.041,0.023l0.082,0.059l0.132,0.082l0.123,0.073h0.009l0.123,0.082l0.132,0.082l0.073,0.05
	l0.05,0.037l0.132,0.073l0.132,0.078l0.032,0.027l0.1,0.055l0.128,0.073l0.114,0.078l0.014,0.009l0.128,0.073l0.132,0.078
	l0.078,0.046l0.05,0.027l0.137,0.087l0.137,0.069l0.027,0.018l0.1,0.055l0.128,0.078l0.123,0.073l0.009,0.005l0.132,0.073
	l0.137,0.073l0.073,0.046l0.059,0.027l0.128,0.073l0.137,0.073l0.023,0.018l0.11,0.055l0.137,0.073l0.114,0.069l0.018,0.005
	l0.137,0.073l0.667,0.343l0.142,0.073c4.828,2.49,10.137,4.226,15.637,5.226l0.064,0.018l0.178,0.023l0.927,0.164l-0.041,0.032
	l0.041-0.032c9.826,1.718,20.547,1.498,31.538-0.014c10.603-1.494,12.343-2.101,21.502-4.353l0.27-0.073l0.27-0.069l0.265-0.073
	l0.27-0.073v0.009l0.265-0.073l0.009-0.005l0.256-0.069l0.009-0.005l0.26-0.073l0.544-0.142l0.265-0.073l0.265-0.073l0.265-0.073
	l0.27-0.078l0.265-0.073l0.265-0.073h0.009l0.26-0.073h0.009l0.256-0.073h0.009l0.256-0.073l0.009-0.005l0.799-0.228l0.265-0.073
	l0.265-0.073v-0.009l0.265-0.073l0.009-0.005l3.44-1.019h0.009l0.26-0.082l0.265-0.073v-0.009l0.27-0.073l-0.005-0.009l0.265-0.073
	v-0.009l0.265-0.073l-0.005-0.005l0.786-0.247h0.009l0.256-0.082h0.009l0.256-0.082h0.009l0.781-0.251h0.009l0.256-0.082h0.009
	l0.516-0.169l0.009-0.005l0.256-0.078l0.009-0.005l0.512-0.164l0.005-0.005l0.521-0.164l0.009-0.005l0.516-0.169h0.009l0.247-0.087
	h0.009l0.256-0.082l0.005-0.005l0.256-0.087h0.005l0.146-0.05l0.142-0.046l0.279-0.096l0.123-0.041l0.16-0.055l0.279-0.091
	l0.1-0.037l0.187-0.059l0.274-0.091l0.087-0.032l0.201-0.064l0.279-0.096l0.059-0.027l0.215-0.069l0.288-0.096l0.037-0.018
	l0.242-0.073l0.279-0.096l0.023-0.014l0.26-0.087l0.27-0.091l0.009-0.005l0.279-0.091l0.251-0.101l0.032-0.009l0.274-0.091
	l0.233-0.082l0.046-0.014l0.274-0.1l0.215-0.073l0.073-0.023l0.274-0.1l0.187-0.069l0.091-0.023l0.274-0.105l0.164-0.05l0.114-0.046
	l0.274-0.101l0.151-0.046l0.128-0.055l0.279-0.091l0.119-0.05l0.155-0.055l0.274-0.1l0.1-0.037l0.178-0.064l0.274-0.091l0.078-0.032
	l0.201-0.073l0.265-0.1l0.064-0.023l0.215-0.078l0.274-0.101l0.041-0.014l0.233-0.087l0.27-0.1l0.023-0.009l0.251-0.091l0.27-0.091
	l0.009-0.014l0.265-0.1l0.256-0.087l0.023-0.014l0.274-0.1l0.224-0.078l0.041-0.023l0.279-0.101l0.206-0.073l0.059-0.027l0.279-0.1
	l0.183-0.069l0.087-0.032l0.265-0.11l0.169-0.055l0.105-0.046l0.27-0.1l0.142-0.055l0.123-0.041l0.265-0.11l0.123-0.041l0.155-0.059
	l0.265-0.101l0.096-0.041l0.169-0.064l0.27-0.101l0.078-0.032l0.187-0.078l0.265-0.096l0.064-0.027l0.206-0.073l0.265-0.11
	l0.041-0.009l0.228-0.087l0.26-0.105l0.023-0.009l0.242-0.091l0.265-0.11l0.146-0.055l0.151-0.059l0.046-0.023l0.1-0.037
	l0.142-0.055l0.155-0.059l0.142-0.055l0.009-0.005l0.137-0.055l0.146-0.055l0.151-0.059l0.105-0.046l0.041-0.009l0.142-0.059
	l0.146-0.055l0.146-0.059l0.073-0.032l0.078-0.027l0.146-0.059l0.142-0.055l0.146-0.055l0.027-0.018l3.938,15.335l3.659-0.192
	l-0.946-17.852l-0.114-2.216l-0.292-5.422l-0.196-3.892L321.199,228.927z M313.702,175.384l0.073,0.206l-4.057-76.895
	c-3.627,14.837-4.527,29.158-3.472,42.447l0.014,0.005v0.105l0.078,0.79l0.032,0.411l0.046,0.471l0.064,0.731l0.018,0.155
	l0.091,0.877l0.014,0.164l0.078,0.713l0.059,0.484l0.046,0.388l0.096,0.79l0.009,0.073l0.114,0.873l0.032,0.228l0.091,0.63
	l0.073,0.548l0.046,0.315l0.128,0.85v0.009l0.137,0.85l0.046,0.297l0.096,0.548l0.096,0.603l0.041,0.247l0.155,0.845l0.005,0.055
	l0.151,0.777l0.064,0.361l0.087,0.475l0.132,0.662l0.041,0.169l0.169,0.827l0.018,0.132l0.151,0.69l0.091,0.42l0.087,0.402
	l0.164,0.713l0.018,0.105l0.192,0.809l0.046,0.196l0.146,0.612l0.114,0.48l0.082,0.324l0.196,0.772l0.009,0.032l0.201,0.795
	l0.069,0.251l0.146,0.544l0.146,0.534l0.069,0.247l0.219,0.786l0.009,0.032l0.215,0.749l0.087,0.311l0.137,0.461l0.178,0.594
	l0.059,0.178l0.228,0.772l0.037,0.091l0.21,0.667l0.11,0.37l0.132,0.388l0.206,0.644l0.041,0.114l0.247,0.749l0.055,0.155
	l0.206,0.594l0.142,0.416l0.119,0.32l0.242,0.685l0.014,0.055L313.702,175.384z M288.783,256.637
	c-0.224,0.155-0.448,0.311-0.672,0.439C288.335,256.948,288.559,256.793,288.783,256.637z"/>
<path style="fill:#28B5F5;" d="M0.475,271.42c179.879,20.703,328-60.971,511.402-23.087c0.073,2.549,0.123,5.103,0.123,7.665
	C512,397.386,397.386,512,255.998,512C119.795,512,8.451,405.622,0.475,271.42z"/>
<path style="fill:#4EC1F5;" d="M7.697,318.503c167.929,23.402,320.861-23.339,491.174,18.606
	C464.948,438.741,369.036,512,255.998,512C136.176,512,35.595,429.673,7.697,318.503z"/>
<path style="fill:#7FD3F9;" d="M39.322,392.365c154.179,5.587,291.889-43.219,448.06-26.719C446.31,452.167,358.15,512,255.998,512
	C164.745,512,84.656,464.245,39.322,392.365z"/>
<path style="fill:#B1E3FB;" d="M85.936,447.329c127.062,2.088,243.504-30.826,369.232-30.51C408.24,474.87,336.461,512,255.998,512
	C190.719,512,131.155,487.551,85.936,447.329z"/>
<path style="fill:#FFB100;" d="M92.578,305.288L92.578,305.288L92.578,305.288c-2.115-2.512-9.57-3.189-14.326-5.212
	s-7.177-10.434-7.177-10.434c-1.06,4.436-6.738,7.46-10.63,9.086s-8.62,5.454-8.62,5.454c-0.681-20.739,14.801-23.215,14.801-23.215
	s0.155-6.861-0.338-15.276c-0.26-4.353,0.082-12.174,1.393-20.209c-0.169-0.932-0.923-4.81-1.96-5.655
	c-3.417-2.791-11.745,1.727-8.762-3.833c4.002-7.469,19.771-16.025,21.657-17.03c7.254-8.515,18.04-15.861,28.423-18.067
	c12.795-2.718,13.079,7.131,13.079,7.131s12.329-3.321,14.91,1.754c0.238,0.461,0.356,0.923,0.375,1.384l0,0
	c0.037,0.804-0.233,1.608-0.754,2.407l0,0c-0.996,1.53-14.924,9.927-16.203,10.625c-2.997,1.64-6.409,3.787-10.036,6.473
	c1.338,1.544,2.586,3.549,3.01,5.943c1.074,5.984-1.562,8.501-2.449,8.213c-1.517-0.493-2.43-5.199-8.003-8.086
	c-0.571,0.512-1.142,1.032-1.718,1.567c0.539,2.042,0.845,4.221,0.886,6.007c0.11,4.902-1.037,12.978-3.202,13.27
	c-1.613,0.219-3.12-5.971-6.377-10.191c-0.534,0.621-1.06,1.256-1.59,1.9c-10.201,12.494-14.97,31.666-14.97,31.666
	C91.659,284.823,92.578,305.26,92.578,305.288L92.578,305.288z M115.647,219.503L115.647,219.503
	C128.817,219.133,124.07,219.265,115.647,219.503z"/>
<path style="fill:#FFF7C3;" d="M148.382,50.144c31.511,0,57.051,25.54,57.051,57.051s-25.54,57.051-57.051,57.051
	s-57.051-25.54-57.051-57.051S116.871,50.144,148.382,50.144z"/>
<path style="fill:#FFF39B;" d="M148.382,58.627c26.824,0,48.568,21.744,48.568,48.568s-21.744,48.568-48.568,48.568
	s-48.568-21.744-48.568-48.568S121.558,58.627,148.382,58.627z"/>
<path style="fill:#FFEF76;" d="M148.382,67.754c21.785,0,39.441,17.66,39.441,39.441c0,21.785-17.656,39.441-39.441,39.441
	s-39.441-17.656-39.441-39.441C108.941,85.415,126.596,67.754,148.382,67.754z"/>
<path style="fill:#FFFFFF;" d="M214.624,46.229c4.34,0,8.433,0.699,12.06,1.941c3.924-2.608,9.296-4.221,15.23-4.221
	c10.265,0,18.871,4.829,21.173,11.329c5.135,1.051,9.25,3.682,11.128,7.067c0.617-0.046,1.243-0.069,1.878-0.069
	c9.483,0,17.176,5.23,17.176,11.681c0,6.45-7.693,11.681-17.176,11.681c-2.96,0-5.742-0.507-8.168-1.398
	c-2.083,4.851-8.679,8.401-16.495,8.401c-4.769,0-9.091-1.325-12.201-3.467c-3.115,2.142-7.437,3.467-12.211,3.467
	c-4.536,0-8.666-1.201-11.736-3.152c-3.143,2.334-7.656,3.801-12.677,3.801c-4.705,0-8.963-1.279-12.06-3.362
	c-1.416,0.215-2.896,0.324-4.408,0.324c-11.306,0-20.465-6.231-20.465-13.915c0-7.688,9.159-13.919,20.465-13.919
	c0.617,0,1.229,0.023,1.827,0.059C189.417,53.337,200.796,46.229,214.624,46.229z"/>
<path d="M315.155,80.796c0,0,5.792-1.243,10.639-0.315c4.856,0.932,9.917,4.961,15.395,5.272c5.473,0.306,4.335-1.759,4.335-1.759
	s-3.513,0.521-4.445-2.476c-0.923-2.997,2.896-5.377,8.78-9.502c5.893-4.13,7.03-8.264,5.893-10.849c0,0-1.037,1.654-5.893,4.239
	c-4.851,2.581-8.36,7.336-12.183,10.735c-3.824,3.412-4.029,3.618-7.647,2.896C326.42,78.316,318.668,77.178,315.155,80.796z"/>
<g>
</g>
<g>
</g>
<g>
</g>
<g>
</g>
<g>
</g>
<g>
</g>
<g>
</g>
<g>
</g>
<g>
</g>
<g>
</g>
<g>
</g>
<g>
</g>
<g>
</g>
<g>
</g>
<g>
</g>
</svg>
