<?xml version="1.0" encoding="iso-8859-1"?>
<!-- Generator: Adobe Illustrator 19.0.0, SVG Export Plug-In . SVG Version: 6.00 Build 0)  -->
<svg version="1.1" id="Layer_1" xmlns="http://www.w3.org/2000/svg" xmlns:xlink="http://www.w3.org/1999/xlink" x="0px" y="0px"
	 viewBox="0 0 512 512" style="enable-background:new 0 0 512 512;" xml:space="preserve">
<g>
	<path style="fill:#81AFFF;" d="M256,0c141.383,0,256,114.612,256,256c0,141.383-114.617,256-256,256C114.612,512,0,397.383,0,256
		C0,114.612,114.612,0,256,0z"/>
	<path style="fill:#80E2F2;" d="M509.553,220.609C432.338,210.355,346.475,204.642,256,204.642S79.662,210.355,2.447,220.609
		C0.846,232.177,0,243.986,0,256c0,141.383,114.612,256,256,256c141.383,0,256-114.617,256-256
		C512,243.986,511.154,232.177,509.553,220.609z"/>
</g>
<path style="fill:#FDFEFD;" d="M146.751,201.667l149.649,4.581l0.073,0.014c9.594,1.952,19.961,4.672,29.168,8.002
	c1.924,0.696,5.8,2.27,5.604,4.872c-0.396,5.24-14.439,5.968-18.36,5.65c-4.54-0.373-9.175-1.155-13.679-1.87
	c-5.709-0.905-11.418-1.829-17.154-2.566c-6.414-0.828-13.065-1.497-19.533-1.378c-4.604,0.086-9.062,0.437-13.633,0.928
	c-4.372,0.469-8.684,0.914-13.083,1.146c-7.219,0.373-14.493,0.291-21.717,0.068c-8.247-0.259-16.458-0.746-24.701-1.169
	c-5.764-0.3-11.568-0.541-17.332-0.177c-4.89,0.314-9.626,1.087-14.389,2.238c-3.594,0.873-7.083,1.879-10.604,3.007
	c-2.002,0.651-4.103,1.387-6.191,1.701c-4.14,0.61-9.107-0.669-13.11-1.647c-5.946-1.447-11.645-2.511-17.727-1.356
	c-3.221,0.61-6.41,1.592-9.626,2.279c-2.93,0.623-12.842,1.624-13.501-2.993c-0.241-1.692,1.26-2.989,2.557-3.771
	c6.232-3.739,15.58-5.513,22.577-8.024c5.154-1.851,10.881-3.298,16.181-4.722c6.123-1.647,12.264-3.23,18.414-4.786
	L146.751,201.667z"/>
<path style="fill:#F7A724;" d="M146.847,202.522c0,0-26.853,6.728-34.522,9.485c-7.67,2.752-16.818,4.585-22.422,7.952
	c-5.609,3.362,0.291,7.342,10.322,5.2c10.035-2.138,12.687-4.585,27.735-0.914c15.048,3.667,11.805,1.224,29.505-3.061
	c17.705-4.281,27.44-1.833,56.649-0.919c29.214,0.919,31.866-1.838,48.388-2.138c16.522-0.309,39.244,4.895,50.453,5.809
	c11.213,0.919,25.079-4.281,12.396-8.871c-12.687-4.59-29.05-7.965-29.05-7.965L146.847,202.522z"/>
<path style="fill:#ADB32A;" d="M133.664,199.788c24.656-5.918,28.268-9.862,32.212-13.806c3.949-3.944,10.522-11.177,16.436-7.888
	c4.485,2.488,32.657,24.551,46.086,35.127c-7.483-0.191-2.347-0.287-22.791-0.287c-20.439,0-64.469,1.801-92.045,4.99
	C111.96,206.261,123.192,202.299,133.664,199.788z"/>
<path style="fill:#9D9B24;" d="M178.449,177.293c1.296-0.127,2.593,0.096,3.862,0.801c4.485,2.488,32.657,24.551,46.086,35.127
	c-7.483-0.191-2.347-0.287-22.791-0.287c-12.232,0-32.926,0.646-53.483,1.847l2.22-2.061c0,0,16.672-7.547,21.389-11.322
	c4.717-3.776-6.291-10.067-1.888-12.896C178.235,185.681,178.449,177.343,178.449,177.293z"/>
<path style="fill:#ADB32A;" d="M297.655,217.925c-21.171-2.447-44.535-4.076-69.259-4.704c-5.181-4.076-12.546-9.862-19.906-15.576
	c13.679-15.444,29.587-33.845,32.662-39.276c5.586-9.862,20.703,9.862,26.625,18.082
	C276.047,187.938,300.03,204.109,297.655,217.925z"/>
<path style="fill:#9D9B24;" d="M297.655,217.925c-9.439-1.092-19.324-2.024-29.569-2.77c-9.853-13.824-23.791-32.944-23.791-32.944
	s6.919-5.031,8.179-10.69c1.251-5.641-7.283-15.762-7.351-15.844c6.905-0.25,17.832,14.079,22.654,20.775
	C276.047,187.938,300.03,204.109,297.655,217.925z"/>
<g>
	<path style="fill:#C6F6FF;" d="M274.492,79.398c0,4.649,3.507,8.416,7.833,8.416h89.297c4.322,0,7.829-3.767,7.829-8.416
		c0-4.645-3.507-8.411-7.829-8.411h-1.183c0.227-1.001,0.355-2.033,0.355-3.093c0-9.371-8.943-16.963-19.975-16.963
		c-2.766,0-5.4,0.478-7.802,1.337c-3.498-7.356-11.978-12.542-21.89-12.542c-13.051,0-23.632,8.984-23.632,20.07
		c0,0.664,0.041,1.328,0.118,1.974c-1.538-1.096-3.498-1.783-5.664-1.783c-4.89,0-8.852,3.366-8.852,7.524
		c0,1.26,0.396,2.429,1.046,3.475h-1.82C277.999,70.987,274.492,74.754,274.492,79.398z"/>
	<path style="fill:#E6FBFF;" d="M250.127,114.13h-1.001c0.359-0.573,0.573-1.215,0.573-1.906c0-2.275-2.165-4.117-4.849-4.117
		c-1.183,0-2.252,0.373-3.098,0.973c0.045-0.355,0.064-0.714,0.064-1.083c0-6.068-5.791-10.986-12.937-10.986
		c-5.427,0-10.067,2.839-11.987,6.869c-1.315-0.473-2.757-0.737-4.272-0.737c-6.041,0-10.936,4.158-10.936,9.289
		c0,0.582,0.064,1.146,0.191,1.697h-0.646c-2.37,0-4.285,2.065-4.285,4.608c0,2.543,1.915,4.604,4.285,4.604h48.897
		c2.37,0,4.29-2.061,4.29-4.604C254.417,116.195,252.497,114.13,250.127,114.13z"/>
	<path style="fill:#C6F6FF;" d="M161.735,124.147c0,3.007-2.27,5.445-5.068,5.445h-57.8c-2.798,0-5.068-2.438-5.068-5.445
		c0-3.007,2.27-5.445,5.068-5.445h0.764c-0.15-0.651-0.232-1.315-0.232-2.002c0-6.064,5.791-10.981,12.933-10.981
		c1.788,0,3.494,0.309,5.049,0.864c2.265-4.763,7.752-8.115,14.166-8.115c8.448,0,15.298,5.814,15.298,12.992
		c0,0.432-0.027,0.855-0.077,1.274c0.992-0.705,2.261-1.151,3.662-1.151c3.166,0,5.732,2.179,5.732,4.867
		c0,0.819-0.259,1.579-0.682,2.252h1.187C159.465,118.702,161.735,121.14,161.735,124.147z"/>
</g>
<path style="fill:#F9BF67;" d="M11.409,331.782c122.769-46.318,297.887-14.075,354.891,21.003
	c38.73,23.832,84.798,7.469,124.056,6.346C450.684,449.151,360.691,512,256,512C140.997,512,43.716,436.168,11.409,331.782z"/>
<path style="fill:#DFF3FD;" d="M12.164,334.138c5.263-3.107,8.388-6.269,10.677-4.681c3.489,2.42,17.041-4.281,25.383-7.742
	s7.356-4.845,31.379-2.507c24.028,2.338,17.441-4.408,50.38-4.849s42.624-0.569,54.251,1.938
	c11.627,2.502,17.828-2.898,43.015,4.363c25.188,7.26,29.837,0.737,54.247,6.114c24.419,5.368,22.868,7.288,38.753,17.327
	c15.89,10.044,16.276-2.875,24.415,1.192c8.143,4.071,10.854,16.185,32.944,17.791c22.085,1.606,16.663,4.717,40.691,6.678
	c24.019,1.956,27.13-7.415,38.748-6.974c9.043,0.346,22.004-1.055,32.885-2.688c1.074-2.402,2.102-4.831,3.098-7.274
	c-7.783-0.232-21.817-0.851-25.324,1.656c-4.203,3.002-18.21,1.569-31.197,3.835c-12.978,2.261-13.174,3.403-22.668,1.82
	c-9.498-1.583-10.081-1.956-25.383-4.03c-15.312-2.074-17.414,2.325-24.788-5.936c-7.378-8.256-12.414-10.849-18.037-11.723
	c-5.618-0.873-8.871-0.309-13.515-3.293c-4.645-2.989-20.771-3.685-28.527-7.838c-7.751-4.153-16.081-7.651-22.672-7.565
	c-6.587,0.091-17.718,0.264-28.04-3.03s-18.851-2.798-30.865-6.059c-12.009-3.257-29.064-2.648-38.362-2.907
	c-9.303-0.255-17.05,0.041-23.25-0.446c-6.2-0.487-15.658,2.434-23.796,0.641c-8.138-1.797-40.15,1.538-42.861,2.711
	c-2.711,1.178-4.303,1.76-14.07,1.324c-9.767-0.432-21.972,0.109-35.341,4.654s-16.467,7.629-21.894,7.888
	c-4.854,0.237-8.629-1.219-12.701,1.651C10.499,328.848,11.318,331.5,12.164,334.138z"/>
<g>
	
		<linearGradient id="SVGID_1_" gradientUnits="userSpaceOnUse" x1="-22365.3145" y1="-21895.4297" x2="-20190.5137" y2="-16565.9297" gradientTransform="matrix(0.0045 0 0 -0.0045 -48.7771 -136.0295)">
		<stop  offset="0" style="stop-color:#A1751A"/>
		<stop  offset="1" style="stop-color:#CCA159"/>
	</linearGradient>
	<path style="fill:url(#SVGID_1_);" d="M64.96,159.998c-3.712-9.985-4.39-13.47-9.844-23.591c-3.657,0.801-6.696,2.12-10.299,2.829
		c-1.956,4.103-4.49,7.538-6.537,9.808c2.816,1.392,13.151,15.003,14.825,16.877L64.96,159.998z"/>
	<path style="fill:#D6AF75;" d="M46.423,141.72c3.28-0.478,6.246-2.452,8.693-5.313c-3.657,0.801-6.696,2.12-10.299,2.829
		c-1.956,4.103-4.49,7.538-6.537,9.808C41.273,147.979,45.476,144.618,46.423,141.72z"/>
	<g>
		<path style="fill:#6C4C40;" d="M60.788,184.021c-4.672-8.748-10.981-15.726-16.763-24.205c8.024-0.505,16.618-5.877,22.304-7.351
			c1.169,3.253,7.21,24.487,6.96,27.158L60.788,184.021z"/>
		<path style="fill:#6C4C40;" d="M48.774,161.308c-1.706,0.159-4.03-0.582-4.749-1.492c8.024-0.505,16.618-5.877,22.304-7.351
			c0,0-0.487,0.514-0.983,1.528C63.877,156.873,51.417,160.985,48.774,161.308z"/>
	</g>
	<path style="fill:#5C4036;" d="M78.493,197.231c-1.383-10.508-1.215-14.02-4.094-25.106c-3.744-0.086-7.01,0.464-10.686,0.3
		c-2.866,3.512-6.141,6.241-8.67,7.965c2.411,2.024,9.294,17.773,10.572,19.97L78.493,197.231z"/>
	<path style="fill:#8B6E62;" d="M82.278,220.177c0.023-10.495,1.128-20.916-1.469-32.535c-5.786,5.9-15.899,7.842-21.012,10.599
		c2.111,2.247,8.57,21.185,9.33,23.596L82.278,220.177z"/>
	<path style="fill:#6C4C40;" d="M84.184,237.922c0.76-10.508,1.524-13.852,1.16-25.179c-3.648-0.878-6.969-1.051-10.54-2.02
		c-3.539,2.784-7.315,4.754-10.14,5.896c1.738,2.561,5.554,19.533,6.282,21.944L84.184,237.922z"/>
	<path style="fill:#5C4036;" d="M71.128,258.529c-1.183-9.971-4.162-19.083-5.914-29.468c7.374,3.025,17.555,1.647,23.309,2.652
		c-0.432,3.339-3.021,24.824-4.149,27.217L71.128,258.529z"/>
	<path style="fill:#8B6E62;" d="M83.288,276.989c2.184-10.235,3.453-13.388,4.899-24.501c-3.444-1.451-6.692-2.156-10.053-3.707
		c-3.953,2.147-7.997,3.489-10.981,4.167c1.278,2.852,2.42,20.361,2.934,22.859L83.288,276.989z"/>
	<path style="fill:#6C4C40;" d="M80.103,299.707c2.902-9.967,7.083-19.333,8.534-30.824c-7.406,3.507-17.586,2.015-23.332,2.943
		c1.078,2.934,1.46,23.314,1.706,25.847L80.103,299.707z"/>
	<path style="fill:#5C4036;" d="M77.451,317.161c3.293-9.812,4.863-12.765,7.674-23.446c-3.212-1.856-6.323-2.966-9.43-4.931
		c-4.176,1.606-8.352,2.42-11.386,2.72c0.864,3.016-0.045,20.562,0.214,23.091L77.451,317.161z"/>
	<path style="fill:#8B6E62;" d="M60.106,333.583c1.055-10.072,0.118-19.788,1.242-30.519c6.405,4.917,16.558,6.141,21.881,8.561
		c-1.437,2.957-8.761,22.991-10.253,25.129L60.106,333.583z"/>
	<path style="fill:#6C4C40;" d="M68.367,354.559c4.103-9.462,5.864-12.273,9.671-22.572c-3.03-2.129-6-3.53-8.939-5.791
		c-4.262,1.205-8.543,1.619-11.582,1.642c0.428,3.093-1.815,20.602-1.833,23.132L68.367,354.559z"/>
	<path style="fill:#5C4036;" d="M61.362,375.748c4.54-9.28,10.076-17.732,13.783-28.504c-7.879,1.952-17.6-1.442-23.441-1.629
		c0.314,3.116-2.811,23.482-2.939,26.02L61.362,375.748z"/>
	<path style="fill:#8B6E62;" d="M56.135,392.72c4.704-9.148,6.646-11.823,11.204-21.749c-2.861-2.365-5.75-3.985-8.493-6.46
		c-4.367,0.869-8.602,0.983-11.65,0.769c0.159,3.13-3.334,20.502-3.475,23.027L56.135,392.72z"/>
	<path style="fill:#6C4C40;" d="M39.153,392.102c0.769-4.995,1.597-10.067,2.952-15.339c5.522,5.873,15.43,8.607,20.325,11.782
		c-1.519,2.129-8.238,14.602-11.709,20.434C46.646,403.52,42.793,397.884,39.153,392.102z"/>
	<path style="fill:#5C4036;" d="M52.55,411.38c0.66-1.196,1.369-2.511,2.147-3.999c-2.72-2.511-5.5-4.285-8.084-6.914
		c-0.614,0.082-1.219,0.15-1.82,0.209C47.291,404.311,49.875,407.878,52.55,411.38z"/>
	<path style="fill:#54892E;" d="M111.833,233.978c2.297-7.565,2.138-20.607,0.782-28.022c2.275,6.446,3.143,14.22,3.221,21.394
		c-0.018,0.218-0.023,0.218-0.005,0c2.475-7.151,0.842-16.9-1.41-24.355c2.643,4.79,3.653,10.517,4.413,16.34
		c2.247-8.338-1.597-19.029-5.845-26.302c3.717,4.085,5.877,10.326,7.893,16.003c1.078-9.967-5.068-19.743-10.754-27.84
		c4.19,4.04,9.949,8.493,11.086,15.735c0.3-3.585-2.011-9.589-5.841-14.766c-3.762-5.245-8.907-9.394-12.25-11.222
		c4.367,1.82,10.472,6.678,14.721,12.801c-1.424-3.853-5.991-9.835-11.359-14.234c-5.313-4.517-11.172-7.31-13.551-8.32
		c5.172,0.796,12.742,3.243,18.028,8.329c-3.676-4.476-10.304-9.712-17.236-12.719c-6.905-3.112-13.811-4.026-17.677-3.171
		c3.757-1.237,13.401-2.093,19.097,1.483c-10.367-7.756-29.214-7.165-36.624-4.126c3.157-3.666,12.828-3.18,19.197-3.776
		c-14.129-3.38-28.245-0.277-36.751,5.004c3.43-4.881,12.096-7.001,19.301-9.539c-7.347-0.928-15.517,1.947-19.734,4.79
		c-4.331,2.811-7.046,6.551-7.556,8.584c0.632,2.079,3.498,5.586,7.142,8.584c3.712,2.93,9.635,6.792,14.721,8.143
		c-4.026-4.672-11.059-7.997-14.079-12.865c7.893,5.659,18.096,11.191,26.098,16.276c-2.402-4.144-9.162-7.638-10.722-11.809
		c5.996,4.795,15.353,14.143,20.839,17.905c-2.766-2.32-5.632-8.852-7.278-12.096c3.839,5.814,12.874,14.766,16.367,19.997
		c-1.847-3.566-3.125-8.634-4.69-12.51c1.205,1.506,3.962,5.09,6.077,8.998c2.206,3.876,3.853,7.965,5.381,10.012
		c-1.064-4.535-2.593-9.371-3.366-12.978c2.334,5.495,5.031,16.681,8.397,20.421c-2.429-4.244-1.137-9.262-2.315-13.72
		c3.744,6.728,3.598,14.68,7.16,21.412c0.469-4.776-0.441-9.83-0.373-14.448c1.738,7.01,1.542,15.53,4.121,22.358
		c0.396-5.068-0.096-9.926,0.123-14.775c1.583,6.874,1.105,15.266,2.634,21.985c-0.014,0.205-0.018,0.205-0.005,0
		c0.946-6.587,0.823-13.838,0.273-20.307C111.81,213.521,112.165,226.172,111.833,233.978z"/>
	<path style="fill:#6EC185;" d="M26.816,141.847c1.947,1.861,3.939,3.639,5.918,5.322c-2.466-0.805-4.585-2.265-6.66-3.826
		l-1.146,2.343c1.074,0.919,2.161,1.76,3.171,2.484c3.102,2.238,6.901,4.167,8.998,4.544c2.011-0.505,5.472-2.866,8.038-6.755
		c2.402-3.707,4.554-10.858,3.148-16.445c-2.024,6.032-3.425,13.392-7.92,16.622c4.681-7.383,5.946-19.183,3.266-29.428
		c-0.905,4.981-0.096,12.455-3.403,15.503c1.387-3.739,2.083-10.149,1.483-16.29C36.26,124.243,31.284,132.895,26.816,141.847z"/>
	<path style="fill:#689D38;" d="M12.169,177.848c-0.127,0.914-0.341,1.747-0.664,2.416c3.507-5.518,5.045-15.298,8.361-20.621
		c-0.118,4.208-3.171,8.211-3.016,12.36c3.38-5.936,6.76-11.982,14.375-16.64c-3.243,4.363-7.638,7.611-8.279,12.191
		c2.038-1.342,4.79-5.008,8.047-7.433c2.957-2.634,6.364-5.14,7.515-7.06c0.114-1.952-1.069-6.501-5.14-9.953
		c-1.215-1.228-3.157-2.42-5.513-3.344c-0.469,0.919-0.923,1.847-1.383,2.775c2.716,1.319,4.79,3.048,5.714,5.186
		c-1.665-1.474-3.848-2.807-6.41-3.785C20.471,154.83,15.912,166.157,12.169,177.848z"/>
	<path style="fill:#7CB142;" d="M130.961,70.328c-8.284,0.218-21.239,3.908-28.782,5.445c6.469-2.657,13.87-5.168,20.98-7.31
		c0.227-0.05,0.232-0.05,0.005,0.005c-7.82-0.277-16.604,3.303-24.087,5.668c4.736-2.82,9.971-4.444,15.458-6.528
		c-8.402-0.168-17.732,4.044-25.465,7.924c4.272-3.471,10.285-5.668,15.339-8.256c-9.262-0.018-18.492,5.272-27.467,10.185
		c4.613-3.78,9.285-9.066,16.063-10.049c-3.844-0.578-10.74,2.393-16.818,6.391c-14.825,14.634-27.881,31.056-38.798,48.925
		c0.023,1.064,0.096,2.047,0.223,2.925c-0.378-0.528-0.66-1.16-0.864-1.87c-1.356,2.238-2.661,4.508-3.949,6.792
		c0.109,5.168,1.019,9.953,2.711,13.834c-2.429-2.293-3.676-6.314-4.422-10.772c-0.773,1.41-1.519,2.839-2.261,4.262
		c0.432,2.543,1.105,4.822,1.924,6.555c2.279,5.263,6.255,8.293,8.225,8.707c2.111-0.773,5.495-3.63,8.83-6.687
		c3.262-3.18,7.911-7.92,10.376-12.774c-5.527,3.143-9.844,9.18-15.039,11.695c6.505-7.215,14.116-15.635,21.285-23.605
		c-4.813,1.97-9.749,8.243-14.193,8.93c5.9-4.945,17.696-13.256,22.904-19.324c-3.075,2.961-10.426,5.29-14.029,6.423
		c6.555-2.784,18.351-12.66,23.637-15.276c-3.594,1.256-9.285,2.484-13.501,3.817c1.72-1.165,6.059-3.83,10.19-5.577
		c4.153-1.729,8.916-3.284,11.541-4.758c-5.263,1.028-10.708,2.015-14.266,2.434c5.459-1.606,18.715-3.785,23.509-7.697
		c-5.29,2.734-10.808,1.337-15.685,2.188c7.524-3.325,17-3.152,24.778-7.961c-5.641,0.341-11.354,1.565-16.417,1.387
		c7.547-1.569,17.891-2.365,24.806-6.796c-5.55,0.914-11.063,2.234-16.349,2.311c7.447-1.865,16.827-3.494,23.25-6.96
		c0.209-0.041,0.209-0.036-0.005,0.014c-6.996,1.014-14.666,2.889-21.544,3.912C110.345,76.278,123.06,72.488,130.961,70.328z
		 M79.917,70.187l0.291-0.173l-0.15,0.041L79.917,70.187z"/>
	<g>
		<path style="fill:#689D38;" d="M24.374,146.874c2.579,0.459,5.168,1.11,7.779,2.011c-2.793,0.141-5.682-0.255-8.498-0.464
			c-0.373,0.796-0.751,1.588-1.115,2.388c2.038,0.364,4.112,0.719,5.991,1.192c4.171,0.842,8.502,1.911,10.699,1.569
			c1.538-1.283,3.867-5.573,3.398-11.373c-0.096-4.167-2.802-10.813-7.46-15.74c-0.368,0.619-0.741,1.233-1.096,1.856
			c3.525,5.7,5.873,11.896,4.34,16.081c-0.355-4.244-2.188-9.266-5.582-13.874C29.823,135.856,27.003,141.31,24.374,146.874z"/>
		<path style="fill:#689D38;" d="M152.91,156.29c-4.294-6.337-14.034-14.375-20.348-18.06c6.209,2.334,12.51,6.564,17.896,10.927
			c0.159,0.146,0.159,0.15-0.005,0.009c-3.707-6.355-12.018-11.113-18.878-14.229c5.2,1.051,10.062,3.898,14.848,6.951
			c-4.731-6.919-15.025-10.758-23.013-12.241c5.331-0.127,11.277,2.165,16.745,4.208c-6.614-7.165-17.659-8.602-26.953-9.899
			c5.536-0.346,12.387-1.851,18.342,1.938c-4.831-5.577-23.182-6.71-29.914-3.939c4.126-1.797,11.341-2.875,18.364-2.052
			c-3.63-1.447-10.645-2.065-17.082-1.347c-6.478,0.614-12.223,2.438-14.52,3.239c4.112-2.798,10.686-6.159,17.473-6.437
			c-11.022-1.41-29.896,4.772-34.218,11.236c2.07-3.253,8.429-9.785,14.475-10.827c-11.682,0.973-25.188,12.25-29.364,18.86
			c0.405-4.699,8.034-9.862,12.296-14.143c-12.237,5.704-21.626,15.849-25.47,24.879c0.027-5.859,5.673-12.41,9.749-18.51
			c-6.164,3.344-10.981,10.194-12.769,14.825c-1.892,4.676-1.956,9.271-1.219,11.227c1.674,1.369,5.932,2.698,10.563,3.184
			c4.626,0.428,11.586,0.264,16.531-1.601c-6.009-1.451-13.497-0.223-18.692-2.648c9.535,0.364,20.834-0.782,30.533-1.815
			c-4.544-1.747-12.005-0.514-15.671-3.116c7.474,0.582,20.748,2.243,27.872,1.26c-3.858,0.15-10.39-3.08-13.647-4.622
			c6.487,2.32,19.884,2.998,26.389,4.058c-4.049-1.192-8.675-3.967-12.464-5.818c4.185,0.191,17.332,4.467,22.081,5.35
			c-4.112-2.234-8.775-4.504-11.887-6.51c5.568,2.261,15.812,7.893,20.739,7.633c-4.717-0.942-7.629-5.181-11.659-7.351
			c7.419,1.856,13.219,7.001,20.475,8.598c-3.23-3.389-7.556-5.9-10.886-8.998c6.282,3.234,12.423,8.825,19.151,11.118
			c-3.503-3.48-7.401-6.196-10.822-9.466c6.032,3.271,11.987,8.811,17.978,11.837c0.141,0.141,0.141,0.15-0.009,0.014
			c-4.322-4.817-9.753-9.289-14.875-12.965C137.603,143.662,147.174,151.314,152.91,156.29z"/>
		<path style="fill:#689D38;" d="M33.385,264.388c1.246-6.651,1.874-17.591,2.711-23.887c0.564,5.727,0.591,12.178,0.851,18.123
			c-0.014,0.182-0.014,0.182-0.005,0c2.256-5.882,1.61-13.674,1.688-20.057c1.183,4.349,1.146,8.934,1.492,13.638
			c2.72-6.4,1.342-14.798,0.61-21.499c1.642,4.149,1.824,9.175,2.766,13.779c2.88-7.146,0.573-15.171,0.56-22.736
			c1.142,4.394,4.208,9.016,2.898,14.138c2.816-4.74,0.396-17.809-1.71-23.318c1.747,3.312,3.243,8.661,4.04,13.82
			c1.174-5.641-1.892-20.357-2.77-24.192c2.088,3.648,4.817,8.757,5.404,13.606c0.309-7.747-1.724-22.231-5.864-27.581
			c2.315,2.616,6.723,8.743,6.787,13.169c0.737-8.302-4.508-21.107-8.074-27.144c3.871,2.261,5.209,9.594,7.915,13.806
			c-1.287-10.24-4.977-20.784-9.99-28.19c4.685,3.08,6.996,9.953,10.54,15.071c-0.091-5.432-3.125-11.655-5.782-15.226
			c-2.679-3.58-6.1-6.214-8.111-6.883c-2.088,0.305-5.896,2.461-9.025,5.736c-3.116,3.262-6.896,9.166-7.615,14.607
			c4.108-4.717,7.251-11.359,12.31-13.82c-5.955,6.755-10.836,16.931-13.229,27.012c3.143-3.917,5.3-11.086,9.412-12.896
			c-4.249,5.6-10.868,17.832-10.995,26.207c0.528-4.417,5.563-10.067,8.152-12.419c-4.704,4.886-8.252,19.138-8.734,26.898
			c1.083-4.786,4.326-9.598,6.787-13.006c-1.283,3.726-5.845,18.087-5.236,23.828c1.31-5.063,3.339-10.244,5.418-13.37
			c-2.666,5.277-6.387,18.073-4.044,23.077c-0.792-5.24,2.707-9.539,4.29-13.802c-0.773,7.533-3.867,15.303-1.697,22.713
			c1.387-4.499,2.065-9.489,4.112-13.461c-1.397,6.601-3.594,14.843-1.497,21.485c0.796-4.663,1.21-9.234,2.807-13.451
			c-0.546,6.369-1.942,14.07-0.237,20.152c-0.014,0.187-0.014,0.182-0.005,0c0.801-5.914,1.46-12.332,2.579-17.973
			C33.126,246.693,32.648,257.647,33.385,264.388z"/>
	</g>
	
		<linearGradient id="SVGID_2_" gradientUnits="userSpaceOnUse" x1="-16524.207" y1="-7803.5723" x2="-13567.9072" y2="124.2269" gradientTransform="matrix(0.0045 0 0 -0.0045 -48.7771 -136.0295)">
		<stop  offset="0" style="stop-color:#A1751A"/>
		<stop  offset="1" style="stop-color:#CCA159"/>
	</linearGradient>
	<path style="fill:url(#SVGID_2_);" d="M282.684,156.318c13.201-5.582,17.218-8.129,32.161-12.137
		c2.593,4.308,4.108,8.502,6.733,12.687c-2.206,5.686-3.225,11.341-3.562,15.439c-3.953-1.46-26.798,0.978-30.187,1.074
		L282.684,156.318z"/>
	<path style="fill:#D6AF75;" d="M317.671,157.578c-2.561-3.635-3.366-8.357-2.825-13.397c2.593,4.308,4.108,8.502,6.733,12.687
		c-2.206,5.686-3.225,11.341-3.562,15.439C316.297,168.395,315.715,161.19,317.671,157.578z"/>
	<path style="fill:#6C4C40;" d="M263.037,182.57c12.865-3.503,25.52-3.776,39.149-5.941c-6.919-8.316-9.598-21.685-13.397-28.595
		c-4.267,1.856-30.61,15.53-32.985,18.251L263.037,182.57z"/>
	<path style="fill:#745031;" d="M296.341,173.367c1.419,1.806,4.285,3.398,5.845,3.262c-6.919-8.316-9.598-21.685-13.397-28.595
		c0,0-0.055,0.942-0.578,2.365C286.738,154.489,294.221,170.479,296.341,173.367z"/>
	<path style="fill:#5C4036;" d="M233.769,177.439c11.564-8.343,14.834-11.75,28.345-19.16c3.535,3.576,6.005,7.288,9.562,10.727
		c-0.792,6.046-0.441,11.777,0.205,15.831c-4.199-0.478-25.957,7.315-29.287,8.093L233.769,177.439z"/>
	<path style="fill:#8B6E62;" d="M207.831,194.916c10.244-9.717,19.424-20.416,33.18-28.591c-0.428,11.109,7.005,22.777,9.03,30.333
		c-4.158,0.018-28.641,11.163-31.693,12.651L207.831,194.916z"/>
	<path style="fill:#6C4C40;" d="M188.711,209.427c9.58-10.449,12.141-14.275,23.568-24.369c4.221,2.752,7.447,5.85,11.695,8.448
		c0.541,6.027,2.102,11.541,3.589,15.357c-4.108,0.655-24.228,12.592-27.267,14.106L188.711,209.427z"/>
	<path style="fill:#5C4036;" d="M180.6,241.207c10.84-8.034,22.513-13.524,34.29-21.399c-9.762-4.426-17.818-15.658-24.11-20.361
		c-2.861,3.503-21.49,25.866-22.795,29.182L180.6,241.207z"/>
	<path style="fill:#8B6E62;" d="M151.323,246.352c7.988-11.573,9.912-15.721,19.447-27.399c4.599,2.033,8.284,4.558,12.906,6.41
		c1.538,5.855,3.971,11.04,6.059,14.584c-3.976,1.397-22.154,16.422-25.074,18.228L151.323,246.352z"/>
	<path style="fill:#6C4C40;" d="M132.03,270.439c7.078-12.041,12.387-24.774,22.29-36.797c3.403,10.472,14.252,19.056,18.646,25.538
		c-3.858,1.656-24.151,20.084-26.853,22.19L132.03,270.439z"/>
	<path style="fill:#5C4036;" d="M118.056,288.457c6.601-12.346,8.038-16.636,15.949-29.309c4.799,1.437,8.784,3.471,13.602,4.699
		c2.297,5.604,5.363,10.463,7.879,13.72c-3.767,1.965-20.17,19.133-22.904,21.217L118.056,288.457z"/>
	<path style="fill:#8B6E62;" d="M117.091,321.92c8.83-10.258,19.147-18.264,28.554-29.209c-10.667-1.72-21.176-10.467-28.404-13.433
		c-1.565,4.126-14.334,29.628-15.044,33.039L117.091,321.92z"/>
	<path style="fill:#6C4C40;" d="M89.706,332.105c5.495-12.824,6.619-17.168,13.229-30.469c4.895,0.992,9.043,2.625,13.993,3.421
		c2.761,5.309,6.332,9.908,9.125,12.906c-3.43,2.456-18.583,20.921-21.048,23.277L89.706,332.105z"/>
	<path style="fill:#5C4036;" d="M74.922,359.408c4.867-12.946,8.011-26.075,15.085-39.567c5.331,9.457,17.564,15.785,23.091,21.303
		c-3.321,2.561-20.261,24.292-22.618,26.748L74.922,359.408z"/>
	<path style="fill:#8B6E62;" d="M63.518,379.542c4.631-13.119,5.459-17.509,10.99-31.206c4.981,0.628,9.257,1.956,14.234,2.356
		c3.207,5.095,7.019,9.371,10.049,12.173c-3.212,2.748-17.063,22.299-19.411,24.792L63.518,379.542z"/>
	<path style="fill:#6C4C40;" d="M67.275,412.295c7.556-11.313,16.54-20.866,24.333-33.226c-10.777,0.018-22.536-7.11-30.119-8.952
		c-0.837,4.262-9.876,31.088-10.213,34.541L67.275,412.295z"/>
	<path style="fill:#5C4036;" d="M47.282,404.261c0.828-2.77,1.824-5.877,3.134-9.698c4.999,0.35,9.335,1.424,14.32,1.533
		c3.507,4.913,7.574,8.975,10.758,11.6c-1.938,1.788-7.497,10.213-12.018,17.018C57.745,418.181,52.327,411.362,47.282,404.261z"/>
	<g>
		<path style="fill:#6EC185;" d="M167.053,178.74c5.281-9.225,18.182-21.112,26.689-26.625
			c-8.397,3.726-16.813,10.049-23.891,16.581c-0.209,0.227-0.2,0.232,0,0.009c4.704-9.016,15.758-16.408,25.124-21.094
			c-7.128,1.838-13.656,6.137-20.052,10.768c6.082-9.903,20.079-16.003,31.129-18.56c-7.429,0.141-15.535,3.78-22.95,7.046
			c8.766-10.258,23.996-13.26,37.165-15.166c-7.82-0.368-17.486-1.897-25.629,3.671c3.23-3.598,11.241-6.878,19.843-7.906
			c8.602-1.165,17.414,0.045,22.281,1.619c-5.809-2.588-16.199-4.08-26.111-2.584c5.09-2.165,15.148-3.216,24.415-2.024
			c9.321,1.024,17.455,4.185,20.643,5.582c-5.559-4.322-14.934-9.471-24.788-9.953c7.765-0.537,19.006,1.115,28.34,5.127
			c9.421,3.885,16.695,9.799,19.411,14.37c-2.243-4.822-10.303-15.048-19.06-17.314c17.154,2.98,33.963,21.963,37.825,32.016
			c0.687-6.473-8.725-15.485-14.011-22.263c16.345,10.708,26.325,27.38,29.009,40.559c1.615-7.852-4.308-18.282-8.466-27.676
			c7.683,6.332,12.419,16.972,13.529,23.728c1.237,6.828,0.082,12.937-1.433,15.303c-2.62,1.306-8.702,1.751-14.989,0.937
			c-6.291-0.923-15.535-3.148-21.553-6.883c8.288-0.364,18.032,3.444,25.579,1.911c-12.815-2.502-27.64-7.378-40.004-10.522
			c6.264-1.465,15.926,1.924,21.439-0.409c-10.217-1.437-27.999-1.961-36.738-3.858c4.817,0.569,13.856-2.657,18.551-4.044
			c-9.23,1.615-26.325,1.037-34.663,2.443c5.186-1.474,11.327-4.899,16.549-6.951c-2.575,0.209-8.634,0.819-14.402,2.356
			c-5.827,1.415-11.345,3.58-14.757,3.967c5.422-3.13,11.554-6.105,15.799-8.68c-7.524,2.784-20.966,10.476-27.722,10.631
			c6.391-1.538,10.108-7.433,15.549-10.394c-10.04,2.552-17.677,10.031-27.549,12.76c4.24-4.863,10.021-8.643,14.475-12.969
			c-8.457,4.767-16.618,12.824-25.666,16.599c4.585-5.059,9.789-9.057,14.338-13.752c-8.184,4.795-15.953,13.01-23.941,17.7
			c-0.191,0.214-0.191,0.214,0.005,0.009c5.563-6.996,12.774-13.565,19.615-19.001C187.087,159.889,174.391,171.202,167.053,178.74z
			"/>
		<path style="fill:#6EC185;" d="M442.805,155.153c-7.961-1.783-20.725-4.303-28.304-4.058c6.619,1.592,13.902,3.585,20.266,6.087
			c0.2,0.064,0.205,0.059,0.009-0.009c-7.288,0.71-15.512-2.284-22.941-3.039c4.786,2.229,9.844,3.18,14.807,4.977
			c-7.665,1.72-16.295-1.601-24.001-3.043c4.613,2.507,10.099,3.43,14.834,5.545c-8.111,2.466-16.376-1.342-24.951-1.324
			c5.004,1.528,9.785,5.795,15.257,4.631c-5.163,2.952-18.81-0.441-25.347-2.561c3.889,1.974,9.794,3.753,15.194,5.027
			c-5.759,1.105-21.808-1.797-26.357-2.038c4.513,2.12,10.354,5.177,15.426,5.664c-7.979,0.6-23.341,0.419-30.647-3.039
			c3.739,2.138,11.454,6.514,15.912,5.845c-8.161,2.165-22.936-1.014-31.197-2.534c4.394,3.744,12.378,2.848,17.637,5.259
			c-10.681,1.037-22.613,0.669-33.422-0.532c6.41,3.489,14.261,2.866,21.012,5.441c-5.131,1.783-12.41,1.055-17.727,0.009
			c-5.054-0.969-10.445-2.907-12.737-4.613c-1.369-2.425-2.256-7.997-0.819-14.088c1.419-5.768,6.419-14.47,13.188-18.251
			c-4.04,7.533-9.94,15.703-8.962,23.077c2.911-11.386,13.288-23.518,25.784-30.346c-4.04,5.482-12.1,11.577-12.032,17.627
			c4.085-8.266,17.787-21.813,29.309-23.869c-5.923,1.811-11.814,10.199-13.693,14.416c4.153-8.147,22.549-16.522,33.226-17.609
			c-6.451,1.956-12.369,7.096-16.167,11.118c4.262-2.766,22.941-10.658,30.947-9.376c-6.905,1.615-13.652,4.722-17.414,7.92
			c6.278-4.403,23.819-9.512,30.387-5.377c-6.996-1.742-12.974,2.875-18.373,5.059c9.576-1.183,20.389-4.613,29.687-0.064
			c-6.155,0.86-12.714,1.046-17.891,3.512c8.334-1.46,19.693-2.72,27.412,2.22c-6.087-0.473-11.973-0.996-17.477,0.478
			c7.911,0.118,18.101,0.682,24.665,5.336c0.227,0.068,0.223,0.059,0-0.014c-7.383-1.31-15.344-2.452-22.404-1.815
			C422.539,148.002,435.745,150.854,442.805,155.153z"/>
		<path style="fill:#6EC185;" d="M284.39,304.229c7.824-5.027,17.577-16.527,22.217-23.819c-5.582,5.427-11.75,11.727-18.123,15.935
			c-0.187,0.141-0.182,0.146,0,0.009c4.176-6.733,11.841-13.388,17.173-20.125c-4.895,3.453-8.907,7.933-13.633,11.659
			c3.425-8.047,11.768-14.93,17.714-21.649c-4.963,3.148-9.194,8.088-14.075,11.541c3.121-9.13,11.65-15.321,16.727-23.7
			c-4.267,4.067-10.845,6.478-13.333,12.51c0.778-6.76,12.119-18.251,17.546-23.446c-3.944,2.716-8.889,7.465-13.279,12.114
			c2.816-6.314,14.348-20.225,16.636-24.451c-4.08,3.262-9.771,7.215-13.183,11.8c4.362-8.202,11.832-21.867,17.441-27.399
			c-3.348,2.875-10.376,7.811-12.037,12.114c2.174-8.534,10.326-19.06,12.46-27.226c-3.999,3.994-5.09,10.69-9.303,14.37
			c2.688-8.789,5.482-17.682,3.002-29.423c-1.26,7.206-0.387,14.493-4.272,19.351c-0.569-3.23,0.482-9.312-0.155-14.739
			c-0.159-5.318-0.855-10.972-0.027-13.861c1.801-1.924,7.347-4.954,14.479-4.153c6.914,0.155,19.479,6.924,24.092,17.978
			c-8.293-8.234-20.034-15.298-27.517-12.569c6.496,0.582,14.57,4.185,20.821,11.459c6.319,7.156,10.19,17.241,11.186,26.684
			c-3.303-7.624-8.629-20.743-15.276-21.781c4.272,3.539,9.63,11.086,12.173,20.02c2.679,8.866,2.839,18.492,0.805,25.261
			c1.742-7.479-3.271-18.76-6.596-22.768c6.605,8.861,3.939,34.045-1.77,44.903c2.265-7.465,1.215-16.458-0.282-22.604
			c0.359,6.173-3.971,29.346-9.994,36.151c2.789-7.52,4.19-15.899,3.712-21.376c0.127,8.807-6.323,28.436-13.729,32.416
			c5.723-5.7,5.463-13.92,6.851-20.389c-4.74,10.026-8.416,22.063-18.087,28.463c3.13-6.25,6.928-12.605,8.011-18.915
			c-3.858,8.83-9.594,20.261-18.878,25.015c4.34-5.532,8.361-10.858,10.513-16.904c-5.058,7.456-11.595,17.045-20.366,20.643
			c-0.223,0.168-0.218,0.168,0.009,0.009c6.405-6.096,12.005-13.279,15.985-20.311C304.224,289.544,293.702,301.435,284.39,304.229z
			"/>
		<path style="fill:#6EC185;" d="M309.496,9.002c7.433,8.311,15.771,24.383,21.23,33.18c-3.371-8.789-7.738-18.346-12.205-27.276
			c-0.164-0.268-0.168-0.264-0.009,0.009c7.483,7.378,12.091,19.283,16.681,28.791c-1.606-7.233-4.854-13.861-7.874-21.144
			c7.915,8.061,12.401,21.08,15.749,32.221c-0.555-7.388-3.949-15.285-6.077-22.631c8.557,9.057,11.9,22.963,15.376,36.274
			c-0.55-7.988,0.3-17.441-4.981-24.974c7.201,5.645,12.405,30.565,9.635,41.742c2.024-6.682,1.779-17.295-0.373-26.835
			c2.552,4.685,4.699,14.511,4.758,24.515c-0.018,10.026-2.184,18.414-3.207,21.812c3.585-6.146,7.924-15.867,7.051-26.748
			c3.826,17.618-4.394,44.266-12.842,51.235c4.299-3.298,12.91-12.86,14.047-21.617c-0.846,16.699-15.508,37.17-24.933,43.825
			c6.551-0.905,13.642-12.523,19.21-18.988c-7.106,17.941-21.894,33.417-35.614,38.344c8.256,0.482,18.519-8.357,26.935-14.907
			c-4.776,9.43-15.398,17.254-22.595,19.615c-7.26,2.616-13.884,1.533-16.099-0.023c-1.196-2.779-1.524-8.716-1.61-14.807
			c0.1-6.123,0.446-15.048,2.907-21.94c2.033,8.311,0.114,18.11,2.443,25.506c1.051-13.015,2.279-28.227,3.444-42.611
			c2.529,6.532,0.946,17.145,4.376,22.135c-0.614-10.344-3.371-29.546-2.234-40.236c-0.059,5.727,4.435,15.071,6.66,19.647
			c-3.321-8.989-4.549-29.641-6.874-37.215c2.097,4.672,6.137,11.368,8.73,16.727c-0.459-2.761-1.847-9.466-3.944-15.121
			c-2.138-5.654-5.018-11.746-6.005-15.68c3.858,6.109,7.929,12.332,10.795,16.199c-3.471-6.819-13.57-21.794-14.17-30.101
			c2.202,7.701,8.67,11.814,12.332,17.364c-3.689-10.431-12.601-19.529-15.08-31.575c4.872,5.823,8.948,12.542,13.793,17.332
			c-5.432-8.821-14.193-19.688-16.245-30.542c4.221,6.273,8.038,12.887,12.833,18.137c-5.049-9.016-12.114-19.688-14.648-29.164
			c-0.159-0.25-0.159-0.25-0.014,0c5.472,7.788,10.713,17.018,16.053,24.697C322.707,34.668,314.673,18.724,309.496,9.002z"/>
		<path style="fill:#6EC185;" d="M413.227,292.974c-0.537-10.649-3.676-27.54-7.351-36.783c1.46,8.798,2.889,18.701,2.798,27.713
			c0.009,0.273,0.009,0.268,0.005-0.005c-3.18-8.752-4.153-20.32-6.864-29.796c0.182,6.778,1.615,13.515,1.929,20.498
			c-4.635-8.907-5.654-21.153-8.134-31.106c-0.014,6.587,1.765,13.815,1.851,20.63c-5.832-9.257-6.36-21.13-10.954-31.415
			c1.237,6.582-0.309,14.093,3.434,20.521c-5.181-5.454-9.08-23.468-10.877-31.793c0.368,5.281,1.892,12.969,3.535,20.079
			c-3.903-6.855-10.181-26.725-12.951-31.597c0.801,5.795,1.383,13.551,3.676,19.738c-4.904-9.476-13.893-25.907-16.135-34.404
			c0.823,4.704,1.806,14.307,4.995,18.856c-6.801-8.029-13.406-23.041-19.697-30.174c0.969,5.673,7.438,11.732,8.748,17.946
			c-7.774-9.271-15.999-17.759-27.403-23.728c4.936,5.791,12.41,9.94,15.194,16.681c-4.59-2.379-9.908-7.078-14.893-10.253
			c-4.676-3.303-9.721-6.555-11.413-9.025c-0.159-2.684,1.879-8.921,7.983-13.815c5.618-5.049,19.988-9.635,31.638-5.827
			c-11.864,0.846-26.18,4.554-29.892,11.978c5.591-4.458,14.479-7.77,24.574-7.67c10.108-0.041,20.684,3.403,29.459,8.566
			c-8.593-2.102-22.768-6.541-28.177-2.184c5.923-0.91,15.603-0.109,24.819,3.548c9.248,3.521,17.823,9.512,22.695,15.662
			c-5.664-6.337-18.405-9.435-23.964-9.366c11.677,0.318,32.48,18.837,39.021,31.238c-5.372-7.005-13.938-12.073-20.243-14.884
			c5.786,3.703,23.891,23.068,26.471,33.13c-4.995-7.647-11.564-14.575-16.745-17.846c7.947,5.791,21.526,24.947,20.634,34.372
			c-1.647-9.057-8.875-14.516-13.761-20.175c6.182,11.031,14.416,22.722,14.207,35.81c-3.398-7.16-6.628-15.003-11.464-20.334
			c5.45,9.544,11.764,22.722,10.226,34.254c-1.979-7.679-4.108-15.034-8.011-21.167c3.48,9.73,7.465,22.317,5.381,32.494
			c0.014,0.305,0.023,0.305,0.009-0.005c-1.383-9.721-3.858-19.925-7.565-28.354C412.377,264.807,415.365,282.339,413.227,292.974z"
			/>
		<path style="fill:#6EC185;" d="M205.142,66.861c10.167-1.651,27.012,0.455,36.442,3.23c-8.006-3.917-17.955-6.173-27.203-7.419
			c-0.287-0.018-0.282-0.014,0.009,0.014c9.621-2.229,21.954,1.51,31.329,5.336c-5.827-4.121-13.092-6.237-20.507-8.102
			c11.141-1.765,24.401,4.763,33.226,11.213c-4.799-5.327-12.519-9.034-19.579-12.496c13.128-0.146,24.719,9.33,34.572,17.232
			c-4.772-5.732-9.635-13.834-18.837-16.158c9.926-0.419,27.967,16.486,31.47,25.634c-2.052-5.695-7.656-13.752-14.943-19.866
			c4.767,2.215,11.85,8.507,17.086,15.462c5.363,6.905,8.889,14.22,10.235,17.204c-1.064-6.61-3.844-16.144-9.835-23.032
			c11.545,9.48,22.913,33.644,20.584,43.834c1.265-5.031,1.792-17.273-2.766-24.146c9.826,12.328,11.25,35.937,8.639,46.132
			c4.231-4.736,2.243-16.959,2.502-25.079c5.709,17.232,4.444,35.769-0.842,47.865c5.709-5.427,6.905-17,9.116-26.612
			c2.416,9.116,0.159,20.152-2.725,26.18c-2.825,6.155-7.26,10.458-9.853,11.541c-2.889-0.364-8.115-3.303-12.865-7.378
			c-4.69-4.149-10.954-11.1-13.688-17.659c6.965,4.535,12.674,12.992,19.834,15.84c-9.148-8.989-18.46-21.107-26.389-31.547
			c5.896,2.839,11.568,11.268,17.505,12.455c-7.465-6.773-21.344-18.228-26.953-26.111c3.416,3.935,12.596,7.338,17.118,9.098
			c-8.27-4.208-21.28-16.677-28.322-22.072c4.89,2.866,11.891,4.831,17.182,6.824c-4.04-3.917-20.357-12.833-25.597-16.668
			c5.968,1.97,12.492,4.435,17.332,5.632c-7.356-3.353-22.313-8.193-26.603-13.251c5.277,3.744,12.096,2.684,17.946,4.622
			c-8.657-5.545-19.047-6.473-27.299-12.091c6.291,0.036,12.737,1.942,18.842,2.343c-8.952-3.162-20.093-4.008-28.545-8.47
			c6.632,0.205,12.874,1.524,19.233,1.842c-8.752-2.88-19.67-3.585-28.158-6.655c-0.277-0.009-0.273-0.009-0.005,0.014
			c8.693-0.218,18.087,0.969,26.402,2.597C231.626,70.178,215.3,67.876,205.142,66.861z"/>
	</g>
</g>
<path style="fill:#E3D45C;" d="M314.418,146.214c7.938,0,14.37,6.432,14.37,14.37c0,7.943-6.432,14.375-14.37,14.375
	c-7.943,0-14.375-6.432-14.375-14.375C300.043,152.647,306.476,146.214,314.418,146.214z"/>
<path style="fill:#FFED58;" d="M314.418,146.214c3.212,0,6.178,1.055,8.57,2.834c2.056,2.484,3.293,5.682,3.293,9.157
	c0,7.938-6.432,14.375-14.375,14.375c-3.212,0-6.178-1.055-8.57-2.834c-2.056-2.484-3.293-5.682-3.293-9.162
	C300.043,152.647,306.476,146.214,314.418,146.214z"/>
<path style="fill:#747474;" d="M312.549,149.626c0.951,0,1.72,0.778,1.72,1.729c0,0.951-0.769,1.724-1.72,1.724
	c-0.955,0-1.724-0.773-1.724-1.724C310.825,150.404,311.593,149.626,312.549,149.626z"/>
<path style="fill:#E3D45C;" d="M297.41,158.592c5.372,5.85,4.981,14.939-0.864,20.307c-5.855,5.368-14.944,4.981-20.311-0.869
	c-5.368-5.85-4.981-14.939,0.869-20.307S292.042,152.742,297.41,158.592z"/>
<path style="fill:#FFED58;" d="M297.41,158.592c2.174,2.365,3.407,5.263,3.712,8.229c-0.441,3.193-1.956,6.269-4.522,8.62
	c-5.85,5.372-14.939,4.977-20.307-0.869c-2.174-2.365-3.403-5.268-3.707-8.234c0.441-3.193,1.956-6.264,4.517-8.616
	C282.953,152.355,292.042,152.742,297.41,158.592z"/>
<path style="fill:#747474;" d="M293.634,159.525c0.646,0.701,0.596,1.788-0.105,2.434c-0.705,0.646-1.792,0.596-2.438-0.105
	c-0.641-0.701-0.596-1.792,0.105-2.434C291.896,158.774,292.988,158.82,293.634,159.525z"/>
<path style="fill:#E3D45C;" d="M329.157,162.286c7.938,0,14.37,6.437,14.37,14.375s-6.432,14.375-14.37,14.375
	s-14.375-6.437-14.375-14.375S321.219,162.286,329.157,162.286z"/>
<path style="fill:#FFED58;" d="M329.157,162.286c3.212,0,6.182,1.055,8.575,2.839c2.052,2.484,3.289,5.677,3.289,9.153
	c0,7.943-6.432,14.379-14.37,14.379c-3.216,0-6.182-1.06-8.575-2.839c-2.056-2.488-3.293-5.677-3.293-9.157
	C314.782,168.723,321.219,162.286,329.157,162.286z"/>
<path style="fill:#747474;" d="M327.288,165.702c0.951,0,1.724,0.773,1.724,1.724s-0.773,1.729-1.724,1.729
	s-1.724-0.778-1.724-1.729S326.337,165.702,327.288,165.702z"/>
<path style="fill:#6EC185;" d="M209.705,283.544c5.359-7.347,15.48-18.064,20.862-24.701c-6.118,4.74-12.46,10.663-18.51,15.894
	c-0.177,0.182-0.173,0.191,0.005,0.009c3.671-7.638,11.887-14.202,18.06-20.166c-5.345,2.861-9.799,7.128-14.725,11.127
	c3.753-8.57,13.247-14.962,20.48-20.434c-5.582,2.224-10.667,6.682-16.035,10.008c4.335-9.407,14.316-14.552,21.722-21.53
	c-5.354,2.939-12.701,4.212-16.499,10.222c2.038-7.124,17.059-16.831,24.387-19.856c-4.854,1.356-11.468,4.826-17.245,8.807
	c4.422-6.355,21.658-16.927,26.22-19.611c-5.5,1.315-13.015,3.362-18.305,7.265c7.301-7.451,23.346-18.833,32.403-19.715
	c-4.699,0.146-14.757,1.492-19.151,5.518c7.442-8.388,24.806-15.071,33.999-17.154c-5.782-1.71-14.188,3.753-20.794,4.99
	c11.186-8.184,24.91-14.307,36.788-16.24c-7.333-1.738-16.204,2.343-24.474,3.594c5.409-4.917,14.288-7.683,20.229-8.384
	c5.977-0.687,11.705,0.232,14.22,1.579c1.624,2.325,3.034,8.047,2.711,14.125c-0.305,6.055-2.597,15.207-7.26,20.925
	c0.832-8.361,4.422-17.568,2.165-24.788c-1.119,12.05-6.564,26.225-14.216,37.866c0.928-6.687,5.959-15.426,3.93-21.107
	c-1.565,9.325-7.429,27.085-15.494,34.941c3.83-4.594,4.713-14.734,4.631-19.438c-0.441,9.116-11.104,25.738-18.255,33.372
	c3.685-5.482,5.395-13.087,6.46-18.655c-2.466,4.699-12.291,22.422-18.478,27.126c3.748-5.955,6.942-12.724,8.074-17.641
	c-2.698,7.469-11.786,22.922-18.847,25.247c5.864-4.049,6.837-11.454,9.548-16.931c-6.655,7.711-11.404,17.905-20.652,22.622
	c3.121-5.509,7.378-10.772,9.376-16.445c-5.172,7.46-11.209,17.204-19.643,21.289c3.83-5.081,7.92-9.698,10.563-15.153
	c-5.709,6.405-11.968,14.875-19.492,18.819c-0.168,0.182-0.164,0.191,0.014,0.014c5.036-6.25,10.708-12.81,15.203-19.115
	C227.246,267.464,216.979,278.035,209.705,283.544z"/>
<path style="fill:#E3D45C;" d="M308.355,160.908c7.938,0,14.37,6.437,14.37,14.379c0,7.938-6.432,14.37-14.37,14.37
	s-14.375-6.432-14.375-14.37C293.98,167.344,300.417,160.908,308.355,160.908z"/>
<path style="fill:#FFED58;" d="M308.355,160.908c3.212,0,6.178,1.055,8.575,2.839c2.052,2.484,3.289,5.677,3.289,9.157
	c0,7.938-6.432,14.375-14.375,14.375c-3.212,0-6.178-1.055-8.57-2.834c-2.056-2.488-3.293-5.682-3.293-9.157
	C293.98,167.344,300.417,160.908,308.355,160.908z"/>
<path style="fill:#747474;" d="M306.485,164.324c0.951,0,1.724,0.773,1.724,1.729c0,0.946-0.773,1.72-1.724,1.72
	c-0.955,0-1.724-0.773-1.724-1.72C304.761,165.097,305.53,164.324,306.485,164.324z"/>
<path style="fill:#6C4C40;" d="M302.382,292.438c59.678,0,109.567,22.763,109.567,84.939c0,62.18-48.379,112.583-108.062,112.583
	c-59.678,0-108.057-50.403-108.057-112.583C195.83,315.201,242.703,292.438,302.382,292.438z"/>
<path style="fill:#DFDFDF;" d="M304.392,301.067c47.983,0,86.886,16.008,86.886,35.755c0,19.752-38.903,35.764-86.886,35.764
	c-47.987,0-86.882-16.013-86.882-35.764C217.511,317.075,256.405,301.067,304.392,301.067z"/>
<path style="fill:#F3F3F3;" d="M390.846,340.38c-4.335,18.082-41.387,32.207-86.454,32.207c-41.305,0-75.864-11.864-84.698-27.758
	c4.34-18.082,41.387-32.202,86.454-32.202C347.453,312.626,382.017,324.485,390.846,340.38z"/>
<g>
	<path style="fill:#FF8964;" d="M315.86,372.277l45.754-110.668c0.5-1.201,1.492-2.047,2.643-2.411l-0.005-0.014l60.311-19.101
		c2.247-0.705,4.649,0.541,5.359,2.789c0.71,2.252-0.541,4.654-2.789,5.363l-58.45,18.505l-42.597,104.614L315.86,372.277z"/>
	<path style="fill:#F38DAF;" d="M315.86,372.277l-45.754-110.668c-0.505-1.201-1.492-2.047-2.643-2.411l0.005-0.014l-60.311-19.101
		c-2.247-0.705-4.649,0.541-5.359,2.789c-0.71,2.252,0.537,4.654,2.789,5.363l58.45,18.505l42.597,104.614L315.86,372.277z"/>
</g>
<g>
</g>
<g>
</g>
<g>
</g>
<g>
</g>
<g>
</g>
<g>
</g>
<g>
</g>
<g>
</g>
<g>
</g>
<g>
</g>
<g>
</g>
<g>
</g>
<g>
</g>
<g>
</g>
<g>
</g>
</svg>
