<?xml version="1.0" encoding="iso-8859-1"?>
<!-- Generator: Adobe Illustrator 19.0.0, SVG Export Plug-In . SVG Version: 6.00 Build 0)  -->
<svg version="1.1" id="Layer_1" xmlns="http://www.w3.org/2000/svg" xmlns:xlink="http://www.w3.org/1999/xlink" x="0px" y="0px"
	 viewBox="0 0 512 512" style="enable-background:new 0 0 512 512;" xml:space="preserve">
<path style="fill:#0299E3;" d="M255.998,0C397.386,0,512,114.614,512,255.998C512,397.386,397.386,512,255.998,512
	C114.614,512,0,397.386,0,255.998C0,114.614,114.614,0,255.998,0z"/>
<path style="fill:#4EC1F5;" d="M0.507,240.082c65.123-12.48,271.817-43.301,511.429,10.895c0.032,1.672,0.064,3.344,0.064,5.02
	C512,397.386,397.386,512,255.998,512C114.614,512,0,397.386,0,255.998C0,250.653,0.183,245.349,0.507,240.082z"/>
<path style="fill:#FFCB00;" d="M275.609,48.472c21.196,0,38.377,17.144,38.377,38.29c0,21.15-17.181,38.295-38.377,38.295
	c-21.196,0-38.372-17.144-38.372-38.295C237.236,65.617,254.413,48.472,275.609,48.472z"/>
<path style="fill:#FFEF76;" d="M1.393,282.808c172.84-47.723,461.353-18.309,502.781,36.212
	C476.099,429.934,375.637,512,255.998,512C123.668,512,14.796,411.593,1.393,282.808z"/>
<g>
	<path style="fill:#FFB100;" d="M457.493,174.109c-0.046,0.037-17.185,13.956-23.635,13.631l0.379-1.512
		c5.87,0.297,22.452-13.184,22.498-13.22L457.493,174.109z"/>
	<path style="fill:#FFB100;" d="M434.237,289.706c0.041-0.009,16.573-3.01,19.3,9.141l-1.444,0.626
		c-2.485-11.082-17.875-8.287-17.916-8.277L434.237,289.706z"/>
	<path style="fill:#FFB100;" d="M106.095,363.467c-0.046,0.009-15.431,3.997-17.916,16.176l-1.448,0.009
		c2.732-13.353,19.259-17.638,19.305-17.647L106.095,363.467z"/>
	<path style="fill:#FFB100;" d="M83.597,255.212c0.046,0.014,16.628,6.185,22.498,3.307l0.379,1.343
		c-6.45,3.166-23.59-3.202-23.635-3.221L83.597,255.212z"/>
</g>
<path style="fill:#F9BF2C;" d="M211.87,317.124c-1.672,0-3.024,0.781-3.024,1.745c0,0.959,1.352,1.74,3.024,1.74
	c1.667,0,3.02-0.781,3.02-1.74C214.889,317.905,213.537,317.124,211.87,317.124z M12.055,333.811c-0.32-1-0.635-2.001-0.941-3.01
	c0.356-0.27,0.822-0.439,1.338-0.439c1.115,0,2.015,0.781,2.015,1.745c0,0.959-0.9,1.736-2.015,1.736
	C12.316,333.843,12.183,333.834,12.055,333.811z M169.318,286.467c-3.198,0-5.788,2.645-5.788,5.92c0,3.271,2.59,5.929,5.788,5.929
	c3.202,0,5.788-2.659,5.788-5.929C175.105,289.112,172.52,286.467,169.318,286.467z M229.493,299.701
	c-3.061,0-5.541,2.033-5.541,4.532c0,2.503,2.48,4.532,5.541,4.532c3.061,0,5.541-2.028,5.541-4.532
	C235.035,301.734,232.554,299.701,229.493,299.701z M364.952,431.4c-1.941,0-3.517,1.247-3.517,2.787s1.576,2.787,3.517,2.787
	c1.951,0,3.527-1.247,3.527-2.787S366.903,431.4,364.952,431.4z M306.037,418.856c-1.389,0-2.517,0.626-2.517,1.393
	c0,0.767,1.128,1.398,2.517,1.398c1.393,0,2.517-0.63,2.517-1.398C308.554,419.482,307.43,418.856,306.037,418.856z
	 M311.578,472.509c-3.613,0-6.551,1.562-6.551,3.485s2.937,3.485,6.551,3.485c3.618,0,6.546-1.562,6.546-3.485
	S315.196,472.509,311.578,472.509z M411.789,314.337c-2.782,0-5.039,1.092-5.039,2.439s2.257,2.439,5.039,2.439
	c2.777,0,5.034-1.092,5.034-2.439S414.566,314.337,411.789,314.337z M85.47,307.366c-3.335,0-6.039,1.873-6.039,4.184
	c0,2.311,2.704,4.18,6.039,4.18c3.339,0,6.044-1.868,6.044-4.18C91.513,309.239,88.809,307.366,85.47,307.366z M133.316,331.057
	c-1.672,0-3.024,1.562-3.024,3.486c0,1.923,1.352,3.485,3.024,3.485c1.663,0,3.015-1.562,3.015-3.485
	C136.331,332.619,134.979,331.057,133.316,331.057z M147.916,300.404c-1.11,0-2.019,0.621-2.019,1.389s0.909,1.393,2.019,1.393
	c1.11,0,2.015-0.626,2.015-1.393S149.026,300.404,147.916,300.404z M120.219,437.672c-1.951,0-3.527,0.151-3.527,0.352
	c0,0.187,1.576,0.343,3.527,0.343c1.946,0,3.527-0.155,3.527-0.343C123.746,437.823,122.165,437.672,120.219,437.672z
	 M135.829,471.115c-1.663,0-3.02,0.626-3.02,1.393c0,0.772,1.357,1.398,3.02,1.398c1.667,0,3.024-0.626,3.024-1.398
	C138.853,471.741,137.496,471.115,135.829,471.115z M66.338,420.944c-2.174,0-3.988,0.827-4.431,1.928l1.014,0.991l1.905,1.823
	c0.471,0.091,0.978,0.142,1.512,0.142c2.503,0,4.527-1.096,4.527-2.439C70.865,422.04,68.842,420.944,66.338,420.944z
	 M270.031,424.434c-2.64,0-4.783,1.562-4.783,3.481c0,1.923,2.142,3.485,4.783,3.485s4.783-1.562,4.783-3.485
	C274.814,425.996,272.671,424.434,270.031,424.434z M178.381,417.467c-2.088,0-3.778,1.247-3.778,2.782
	c0,1.539,1.69,2.791,3.778,2.791c2.088,0,3.778-1.252,3.778-2.791C182.159,418.714,180.468,417.467,178.381,417.467z
	 M192.482,446.036c-2.366,0-4.285,1.247-4.285,2.777c0,1.544,1.919,2.796,4.285,2.796c2.362,0,4.276-1.252,4.276-2.796
	C196.758,447.283,194.844,446.036,192.482,446.036z M273.306,478.086c-2.225,0-4.029,0.932-4.029,2.097
	c0,1.147,1.804,2.083,4.029,2.083s4.025-0.936,4.025-2.083C277.331,479.018,275.531,478.086,273.306,478.086z M414.557,349.178
	c-1.809,0-3.275,0.777-3.275,1.74s1.466,1.745,3.275,1.745s3.275-0.781,3.275-1.745S416.366,349.178,414.557,349.178z
	 M48.961,366.597c-2.362,0-4.28,1.562-4.28,3.481c0,1.928,1.919,3.485,4.28,3.485s4.285-1.558,4.285-3.485
	C53.246,368.159,51.323,366.597,48.961,366.597z M60.546,333.843c-1.809,0-3.271,1.407-3.271,3.143c0,1.727,1.462,3.129,3.271,3.129
	c1.809,0,3.275-1.402,3.275-3.129C63.821,335.25,62.355,333.843,60.546,333.843z M112.412,308.764c-2.362,0-4.28,1.868-4.28,4.18
	c0,2.311,1.919,4.18,4.28,4.18c2.362,0,4.28-1.868,4.28-4.18C116.693,310.632,114.774,308.764,112.412,308.764z M92.774,400.739
	c-2.083,0-3.778,1.247-3.778,2.791c0,1.535,1.695,2.787,3.778,2.787c2.083,0,3.778-1.252,3.778-2.787
	C96.552,401.986,94.857,400.739,92.774,400.739z M87.991,342.212c-7.51,0-13.599,5.61-13.599,12.54s6.089,12.544,13.599,12.544
	c7.505,0,13.595-5.614,13.595-12.544S95.497,342.212,87.991,342.212z M152.95,386.806c-2.225,0-4.029,1.087-4.029,2.444
	c0,1.338,1.804,2.426,4.029,2.426c2.225,0,4.029-1.087,4.029-2.426C156.979,387.893,155.175,386.806,152.95,386.806z
	 M152.196,420.944c-2.366,0-4.28,1.722-4.28,3.833c0,2.12,1.914,3.837,4.28,3.837s4.28-1.718,4.28-3.837
	C156.477,422.666,154.563,420.944,152.196,420.944z M138.346,398.651c-0.831,0-1.512,0.311-1.512,0.699
	c0,0.379,0.681,0.694,1.512,0.694c0.836,0,1.512-0.315,1.512-0.694C139.858,398.962,139.182,398.651,138.346,398.651z
	 M156.477,365.208c-1.115,0-2.015,0.772-2.015,1.74c0,0.959,0.9,1.74,2.015,1.74c1.11,0,2.01-0.781,2.01-1.74
	C158.487,365.98,157.587,365.208,156.477,365.208z M181.656,324.789c-5.285,0-9.57,2.654-9.57,5.925s4.285,5.925,9.57,5.925
	c5.285,0,9.566-2.654,9.566-5.925S186.941,324.789,181.656,324.789z M197.768,295.521c-3.335,0-6.044,1.873-6.044,4.18
	c0,2.311,2.709,4.18,6.044,4.18c3.339,0,6.044-1.868,6.044-4.18C203.811,297.394,201.107,295.521,197.768,295.521z M465.168,320.609
	c-2.787,0-5.039,3.115-5.039,6.962c0,3.851,2.252,6.971,5.039,6.971c1.288,0,2.467-0.672,3.358-1.772l1.229-2.316
	c0.288-0.877,0.448-1.855,0.448-2.883C470.202,323.725,467.95,320.609,465.168,320.609z"/>
<path style="fill:#FFFFFF;" d="M180.254,76.639c2.234,0,4.34,0.53,6.204,1.471c2.024-1.978,4.783-3.198,7.834-3.198
	c5.281,0,9.707,3.655,10.895,8.574c2.636,0.795,4.755,2.787,5.719,5.345c0.32-0.037,0.64-0.055,0.968-0.055
	c4.879,0,8.835,3.961,8.835,8.839c0,4.879-3.956,8.835-8.835,8.835c-1.521,0-2.956-0.384-4.203-1.055
	c-1.069,3.668-4.463,6.354-8.483,6.354c-2.458,0-4.678-1.005-6.281-2.622c-1.599,1.617-3.819,2.622-6.277,2.622
	c-2.334,0-4.454-0.909-6.039-2.385c-1.613,1.768-3.938,2.873-6.519,2.873c-2.417,0-4.609-0.968-6.204-2.54
	c-0.731,0.16-1.489,0.242-2.266,0.242c-5.815,0-10.525-4.71-10.525-10.525s4.71-10.53,10.525-10.53c0.32,0,0.63,0.018,0.941,0.046
	C167.289,82.016,173.146,76.639,180.254,76.639z"/>
<path style="fill:#B1E3FB;" d="M146.637,69.92c2.234,0,4.34,0.534,6.204,1.471c2.019-1.973,4.783-3.193,7.834-3.193
	c5.281,0,9.707,3.655,10.895,8.574c2.636,0.79,4.755,2.782,5.719,5.34c0.315-0.032,0.64-0.05,0.968-0.05
	c4.879,0,8.835,3.956,8.835,8.835c0,4.883-3.956,8.839-8.835,8.839c-1.526,0-2.956-0.384-4.203-1.06
	c-1.074,3.673-4.463,6.354-8.483,6.354c-2.458,0-4.678-1-6.281-2.618c-1.599,1.617-3.824,2.618-6.277,2.618
	c-2.334,0-4.454-0.904-6.039-2.385c-1.613,1.768-3.938,2.878-6.519,2.878c-2.417,0-4.609-0.968-6.204-2.54
	c-0.731,0.16-1.489,0.242-2.266,0.242c-5.815,0-10.53-4.714-10.53-10.525c0-5.815,4.714-10.53,10.53-10.53
	c0.315,0,0.63,0.018,0.941,0.046C133.672,75.301,139.529,69.92,146.637,69.92z"/>
<path style="fill:#FFFFFF;" d="M368.949,117.652c2.924,0,5.683,0.694,8.127,1.928c2.65-2.59,6.267-4.189,10.265-4.189
	c6.921,0,12.722,4.792,14.275,11.238c3.458,1.037,6.236,3.65,7.496,6.998c0.42-0.041,0.841-0.064,1.27-0.064
	c6.391,0,11.58,5.18,11.58,11.58c0,6.395-5.189,11.58-11.58,11.58c-1.996,0-3.869-0.502-5.505-1.389
	c-1.407,4.81-5.852,8.328-11.119,8.328c-3.216,0-6.13-1.316-8.227-3.435c-2.101,2.12-5.011,3.435-8.227,3.435
	c-3.061,0-5.843-1.188-7.912-3.125c-2.12,2.316-5.162,3.769-8.547,3.769c-3.166,0-6.039-1.27-8.127-3.33
	c-0.955,0.21-1.951,0.32-2.969,0.32c-7.624,0-13.796-6.176-13.796-13.796c0-7.62,6.172-13.796,13.796-13.796
	c0.416,0,0.827,0.023,1.233,0.055C351.96,124.705,359.63,117.652,368.949,117.652z"/>
<g>
	<path style="fill:#BBBBBB;" d="M83.026,255.258l0.005-0.005c2.453-0.539,4.454,1.119,4.454,3.691v158.002
		c0,2.572-2.001,5.116-4.454,5.655h-0.005c-2.449,0.539-4.454-1.119-4.454-3.691V260.908
		C78.572,258.337,80.577,255.792,83.026,255.258z"/>
	<path style="fill:#BBBBBB;" d="M457.306,172.803L457.306,172.803c2.453-0.544,4.454,1.119,4.454,3.691v158.002
		c0,2.572-2.001,5.112-4.454,5.655l0,0c-2.453,0.539-4.458-1.119-4.458-3.691V178.454
		C452.847,175.887,454.853,173.342,457.306,172.803z"/>
</g>
<g>
	<polygon style="fill:#FF8964;" points="434.237,186.229 106.095,258.519 106.095,265.646 434.237,193.355 	"/>
	<polygon style="fill:#FF8964;" points="434.237,284.055 106.095,356.341 106.095,363.467 434.237,291.181 	"/>
</g>
<g>
	<path style="fill:#FFFFFF;" d="M106.095,273.745l328.142-72.286v1.476l-328.142,72.291V273.745z M106.095,347.547l328.142-72.286
		v1.476l-328.142,72.291V347.547z M106.095,332.788l328.142-72.291v1.48l-328.142,72.291V332.788z M106.095,318.028l328.142-72.291
		v1.48l-328.142,72.291V318.028z M106.095,303.269l328.142-72.291v1.48l-328.142,72.291V303.269z M106.095,288.504l328.142-72.286
		v1.476l-328.142,72.291V288.504z"/>
	<path style="fill:#FFFFFF;" d="M120.525,262.466v90.696l-1.48,0.329v-90.7L120.525,262.466z M106.835,265.481v90.7l-1.48,0.324
		v-90.7L106.835,265.481z M433.497,284.215v-90.7l1.48-0.324v90.7L433.497,284.215z M421.286,196.206v90.7l-1.48,0.329v-90.7
		L421.286,196.206z M405.458,199.696v90.7l-1.48,0.324v-90.7L405.458,199.696z M389.629,203.181v90.7l-1.48,0.324V203.51
		L389.629,203.181z M373.796,206.671v90.696l-1.48,0.329v-90.7L373.796,206.671z M357.967,210.157v90.7l-1.48,0.324v-90.7
		L357.967,210.157z M342.139,213.642v90.7l-1.48,0.324v-90.696L342.139,213.642z M326.31,217.132v90.696l-1.48,0.329v-90.7
		L326.31,217.132z M310.477,220.618v90.7l-1.476,0.324v-90.696L310.477,220.618z M294.649,224.103v90.7l-1.48,0.329v-90.7
		L294.649,224.103z M278.82,227.593v90.7l-1.48,0.324v-90.7L278.82,227.593z M262.992,231.079v90.7l-1.48,0.324v-90.696
		L262.992,231.079z M247.158,234.569v90.696l-1.476,0.329v-90.7L247.158,234.569z M231.33,238.054v90.7l-1.476,0.324v-90.7
		L231.33,238.054z M215.501,241.54v90.7l-1.48,0.324v-90.696L215.501,241.54z M199.673,245.03v90.696l-1.48,0.329v-90.7
		L199.673,245.03z M183.844,248.515v90.7l-1.48,0.324v-90.7L183.844,248.515z M168.011,252.001v90.7l-1.48,0.329v-90.7
		L168.011,252.001z M152.183,255.491v90.7l-1.48,0.324v-90.7L152.183,255.491z M136.354,258.976v90.7l-1.48,0.324v-90.696
		L136.354,258.976z"/>
</g>
<path style="fill:#1073CE;" d="M339.233,344.249c20.246,0,36.664,16.418,36.664,36.664c0,20.25-16.418,36.664-36.664,36.664
	c-20.25,0-36.664-16.413-36.664-36.664C302.57,360.667,318.983,344.249,339.233,344.249z"/>
<path style="fill:#42A3F3;" d="M346.899,399.437c0,7.944-2.334,12.526-5.486,18.076c6.341-0.375,12.247-2.357,17.318-5.55
	c1.759-2.992,3.175-6.331,3.796-9.831c1.078-6.103,0.909-9.634-0.955-15.838c-1.265-4.203-3.942-10.1-6.66-13.718
	c-0.818-1.096-3.705-5.18-4.632-5.537c-0.895,0.397-2.773,2.078-3.44,2.713c-0.936,0.882-2.069,2.101-2.91,3.266
	c-0.722,1-4.641,6.784-3.65,8.319c0.484,0.754,1.293,1.498,2.59,3.586c0.813,1.311,1.466,2.554,2.083,4.093
	C346.264,392.301,346.899,395.481,346.899,399.437z"/>
<path style="fill:#FFE900;" d="M321.486,378.218c0.978,0.58,3.819,1.503,5.084,1.859c3.284,0.936,6.843,1.032,10.237,0.617
	c1.384-0.169,1.672,0.046,2.248-1.133c0.863-1.75,0.667-1.909,2.142-4.65c1.434-2.668,4.006-5.495,6.277-7.3
	c2.421-1.923,5.18-3.723,8.62-4.966c5.4-1.941,8.894-2.27,13.682-2.01c-3.38-5.084-7.994-9.273-13.412-12.142
	c-0.169,0-0.343,0-0.525,0c-5.55,0-8.743,0.804-13.197,2.869c-8.428,3.906-15.449,12.672-19.013,21.114
	C322.807,374.426,322.254,376.34,321.486,378.218z"/>
<path style="fill:#42A3F3;" d="M345.547,397.792c0.539-2.353-1.718-8.826-3.157-11.302c-1.549-2.672-1.549-2.394-3.024-4.395
	c-0.758-1.032-2.599,0.096-6.222,0.096c-7.268,0-13.161-2.924-17.578-6.24l-5.824-5.911c-0.845-1.037-2.348-3.339-3.417-5.304
	c-2.403,4.879-3.755,10.37-3.755,16.176c0,0.557,0.014,1.11,0.037,1.658c0.863,1.457,1.836,2.901,2.467,3.718
	c1.754,2.284,3.175,3.559,5.454,5.354c0.512,0.402,1.023,0.722,1.544,1.083c6.825,4.723,15.372,6.295,23.695,6.121
	C339.147,398.774,342.23,397.993,345.547,397.792z"/>
<path style="fill:#FFE900;" d="M351.7,366.249c0.311,0.909,3.271,4.207,4.353,5.802c6.487,9.566,10.365,21.315,7.003,33.055
	c-0.48,1.654-0.895,2.841-1.599,4.276c-0.174,0.343-0.388,0.735-0.612,1.147c7.012-5.125,12.133-12.677,14.129-21.42
	c0-10.539-5.135-21.415-10.182-27.043C361.224,361.923,353.628,364.317,351.7,366.249z"/>
<path style="fill:#42A3F3;" d="M320.18,377.546c0.713-0.786,1.877-4.545,2.471-5.893c3.965-9.004,11.224-17.944,20.388-21.758
	c5.139-2.138,6.898-2.439,10.886-2.576c-4.495-1.973-9.47-3.07-14.691-3.07c-3.874,0-7.606,0.603-11.11,1.718
	c-1,0.585-1.909,1.174-2.787,1.823c-1.873,1.38-3.271,2.65-4.851,4.257c-0.557,0.571-0.914,1.019-1.526,1.562
	c-2.613,2.321-5.87,7.798-7.437,10.932c-2.065,4.125-1.558,3.901,0.242,6.098C313.73,373.038,317.489,376.144,320.18,377.546z"/>
<g>
	<path style="fill:#FFE900;" d="M345.675,398.793c-2.22,0.251-4.541,0.763-6.87,1.073c-2.097,0.274-5.646,0.279-7.825,0.146
		c-4.532-0.283-9.196-1.366-13.065-2.787c-3.056-1.128-7.364-3.846-9.863-6.039c-0.384-0.333-0.635-0.658-1.019-0.991
		c-1.914-1.681-3.239-3.536-4.221-5.061c1.028,8.976,5.299,16.966,11.608,22.772c3.773,2.11,7.917,3.412,12.398,4.335
		c4.815,0.996,5.468,0.799,10.493,0.781c1.8-0.009,3.39-0.128,5.043-0.53c0.767-0.187,0.548-0.082,1.156-1.613
		c0.297-0.749,0.548-1.416,0.772-2.156C345.323,405.307,345.675,402.726,345.675,398.793z"/>
	<path style="fill:#FFE900;" d="M309.066,366.862c0-0.005,2.787-5.724,3.618-7.03c2.745-4.317,6.076-8.396,10.05-11.557
		c0.119-0.096,0.233-0.187,0.347-0.279c-6.802,3.344-12.416,8.73-16.039,15.358C307.599,364.5,308.495,366.263,309.066,366.862z"/>
</g>
<path style="fill:#1187D4;" d="M342.057,413.963c-1.128-0.059-2.864,0.219-4.125,0.274c-4.582,0.206-8.328-0.069-12.804-1.069
	c-2.631-0.589-4.605-1.192-6.642-2.024c5.897,4.056,13.047,6.432,20.748,6.432c0.224,0,0.448-0.005,0.676-0.009
	C340.814,416.179,341.828,414.411,342.057,413.963z"/>
<path style="fill:#42A3F3;" d="M370.566,361.869c-1.553-0.132-3.38-0.187-4.162-0.027c0.484,0.868,1.297,1.85,1.896,2.745
	c3.91,5.829,6.405,12.316,7.478,19.282c0.078-0.973,0.119-1.96,0.119-2.956C375.897,373.938,373.947,367.419,370.566,361.869z"/>
<g>
</g>
<g>
</g>
<g>
</g>
<g>
</g>
<g>
</g>
<g>
</g>
<g>
</g>
<g>
</g>
<g>
</g>
<g>
</g>
<g>
</g>
<g>
</g>
<g>
</g>
<g>
</g>
<g>
</g>
</svg>
