<?xml version="1.0" encoding="iso-8859-1"?>
<!-- Generator: Adobe Illustrator 19.0.0, SVG Export Plug-In . SVG Version: 6.00 Build 0)  -->
<svg version="1.1" id="Layer_1" xmlns="http://www.w3.org/2000/svg" xmlns:xlink="http://www.w3.org/1999/xlink" x="0px" y="0px"
	 viewBox="0 0 512 512" style="enable-background:new 0 0 512 512;" xml:space="preserve">
<path style="fill:#666666;" d="M255.997,0C397.383,0,512,114.611,512,255.997S397.383,512,255.997,512S0,397.383,0,255.997
	S114.611,0,255.997,0z"/>
<path style="fill:#7EA551;" d="M255.997,254.553c95.821,0,184.021,11.92,254.189,31.919C495.119,413.489,387.072,512,255.997,512
	C124.928,512,16.875,413.489,1.814,286.471C71.976,266.472,160.176,254.553,255.997,254.553z"/>
<path style="fill:#8CAB67;" d="M0.617,273.63c35.254-55.089,69.058-103.284,104.787-141.421
	c11.744-12.542,32.823-13.376,46.352-4.521c90.355,59.099,128.075,120.418,152.971,182.277l-294.61,17.486
	C5.114,310.193,1.879,292.185,0.617,273.63z"/>
<path style="fill:#4D7229;" d="M138.938,122.561c4.615,0.916,9.019,2.636,12.818,5.126
	c90.355,59.099,128.075,120.418,152.971,182.277l-150.059,8.907c0,0-10.334-19.753-35.137-49.845
	c-24.808-30.093,48.419-26.852,25.771-68.336C122.649,159.213,138.938,122.561,138.938,122.561z"/>
<path style="fill:#8CAB67;" d="M240.161,317.21c28.143-81.711,62.892-165.496,154.245-267.083c1.908-2.114,3.899-3.969,5.954-5.555
	C467.762,90.683,512,168.167,512,255.997c0,18.508-1.985,36.552-5.719,53.95C418.304,312.149,327.086,315.314,240.161,317.21z"/>
<path style="fill:#4D7229;" d="M506.222,310.223l-127.629,3.958c-30.891-44.085,0.417-74.436,7.903-75.599
	c8.59-1.345,62.593-70.766,25.519-90.719c-28.425-15.296-12.096-71.612-2.93-97.066C471.555,97.477,512,172.013,512,255.997
	C512,274.605,509.992,292.743,506.222,310.223z"/>
<path style="fill:#FFFFFF;" d="M267.805,6.987c20.334,0,36.81,16.482,36.81,36.804c0,20.334-16.476,36.81-36.81,36.81
	c-20.328,0-36.804-16.476-36.804-36.81C231.001,23.469,247.477,6.987,267.805,6.987z"/>
<path style="fill:#E6E6E6;" d="M148.661,35.518c4.034,0,7.839,0.957,11.203,2.66c3.646-3.576,8.643-5.778,14.151-5.778
	c9.536,0,17.533,6.606,19.676,15.49c4.768,1.427,8.59,5.032,10.334,9.647c0.575-0.059,1.157-0.088,1.744-0.088
	c8.808,0,15.959,7.146,15.959,15.965c0,8.814-7.152,15.954-15.959,15.954c-2.748,0-5.332-0.687-7.586-1.908
	c-1.938,6.629-8.062,11.473-15.325,11.473c-4.433,0-8.444-1.803-11.338-4.727c-2.895,2.924-6.905,4.727-11.344,4.727
	c-4.21,0-8.05-1.632-10.904-4.304c-2.918,3.194-7.111,5.197-11.779,5.197c-4.369,0-8.32-1.75-11.197-4.592
	c-1.321,0.294-2.695,0.44-4.098,0.44c-10.505,0-19.019-8.514-19.019-19.013c0-10.505,8.514-19.019,19.019-19.019
	c0.57,0,1.139,0.029,1.697,0.082C125.245,45.236,135.82,35.518,148.661,35.518z"/>
<path style="fill:#785448;" d="M115.809,299.677c-0.164,0.622-3.599,25.924-3.599,25.924l7.299,0.617l-0.082-25.542L115.809,299.677
	z"/>
<path style="fill:#2E7C32;" d="M103.255,254.23c0,0,12.055-2.402,10.675,0.705c-1.386,3.1-16.899,11.186-16.899,11.186
	s12.319-1.767,10.469,2.454c-1.85,4.222-17.181,11.309-17.181,11.309s19.823-3.053,14.403,2.572
	c-5.426,5.619-25.067,15.09-25.067,15.09s24.973-5.285,24.174,0.981c-0.799,6.265-10.992,8.062-13.112,12.025
	c0,0,24.644-4.38,27.333-1.028c2.807,0.006,27.668,4.351,27.709,3.265c-1.814-4.081-12.36-7.075-12.683-13.376
	c-0.323-6.3,24.198,0.481,24.198,0.481s-18.884-10.634-23.869-16.57c-4.985-5.936,14.568-1.703,14.568-1.703
	s-14.762-7.991-16.288-12.313c-1.527-4.322,10.628-1.82,10.628-1.82s-14.861-9.001-16.012-12.178
	c-1.145-3.182,10.704-0.059,10.704-0.059c-9.982-8.385-13.64-17.163-16.071-21.778C118.163,237.93,113.848,246.467,103.255,254.23z"
	/>
<path style="fill:#388D3C;" d="M103.255,254.23c0,0,12.055-2.402,10.675,0.705c-1.386,3.1-16.899,11.186-16.899,11.186
	s12.319-1.767,10.469,2.454c-1.85,4.222-17.181,11.309-17.181,11.309s19.823-3.053,14.403,2.572
	c-5.426,5.619-25.067,15.09-25.067,15.09s24.973-5.285,24.174,0.981c-0.799,6.265-10.992,8.062-13.112,12.025
	c-5.038,1.732,20.363-3.065,27.333-1.028l3.106-75.622l-0.223-0.429C118.163,237.93,113.848,246.467,103.255,254.23z"/>
<path style="fill:#D3DF56;" d="M240.977,174.873l75.247,151.668c1.315,2.654,1.18,5.555-0.382,8.074
	c-1.562,2.513-4.098,3.928-7.058,3.928H178.513c-2.918,0-5.426-1.374-6.999-3.828c-1.568-2.46-1.767-5.308-0.546-7.956
	L240.977,174.873z"/>
<polygon style="fill:#817616;" points="240.977,174.873 211.008,338.542 271.105,338.542 "/>
<g>
	<path style="fill:#785448;" d="M82.181,316.946c0.399-7.034,10.417-6.236,10.869,0v19.177H82.181V316.946z"/>
	<path style="fill:#785448;" d="M402.151,314.586c-0.393-7.029-10.411-6.23-10.869,0v19.183h10.869V314.586z"/>
</g>
<path style="fill:#E5ED9B;" d="M240.977,174.873l114.129,108.064l-47.039,27.163L240.977,174.873z M240.977,174.873L130.694,285.156
	l47.045,27.157L240.977,174.873z"/>
<g>
	<path style="fill:#FFD500;" d="M402.075,317.204h-10.64l-37.033-33.857l-2.09,1.204l38.93,35.436l3.253,0.012h7.58V317.204z
		 M82.263,319.559h10.64l38.114-34.215l2.126,1.227L93.05,322.489l-3.212-0.129h-7.575V319.559z"/>
	<path style="fill:#FFD500;" d="M373.949,188.865v42.923c14.709-8.86,30.04-9.706,46.029-2.167
		c-0.799-3.37-9.976-21.514-9.976-21.514l19.817-20.381C429.819,187.726,383.215,201.871,373.949,188.865z"/>
</g>
<path style="fill:#785448;" d="M373.203,210.033c0.2-47.156,5.208-41.795,5.431,0v128.586h-5.431V210.033z"/>
<g>
	<g>
		<path style="fill:#E5E5E5;" d="M241.764,276.102c-8.332,0-15.108-6.776-15.108-15.108c0-8.326,6.776-15.102,15.108-15.102
			s15.108,6.776,15.108,15.102C256.872,269.326,250.096,276.102,241.764,276.102z M241.764,250.548L241.764,250.548
			c-5.76,0-10.446,4.686-10.446,10.446c0,5.766,4.686,10.452,10.446,10.452c5.76,0,10.446-4.686,10.446-10.452
			C252.21,255.234,247.524,250.548,241.764,250.548z"/>
		<path style="fill:#E5E5E5;" d="M208.958,447.534c-0.945,0-1.891-0.341-2.642-1.039c-0.252-0.235-6.242-5.813-11.832-12.231
			c-6.87-7.892-7.516-19.67-6.805-25.384c0.417-3.429,4.727-28.372,8.89-52.505c3.13-18.144,6.089-35.283,6.57-38.525
			c1.503-10.146,6.77-13.746,10.828-13.746h12.63c2.143,0,3.881,1.732,3.881,3.875c0,2.149-1.738,3.881-3.881,3.881h-12.63
			c-0.376,0.1-2.349,1.691-3.153,7.122c-0.493,3.335-3.323,19.729-6.594,38.713c-3.958,22.917-8.444,48.894-8.837,52.135
			c-0.599,4.797,0.235,13.916,4.956,19.336c5.32,6.107,11.203,11.591,11.262,11.644c1.568,1.456,1.662,3.916,0.206,5.484
			C211.037,447.117,210.004,447.534,208.958,447.534z"/>
		<path style="fill:#E5E5E5;" d="M274.569,447.534c0.945,0,1.897-0.341,2.642-1.039c0.253-0.235,6.242-5.813,11.832-12.231
			c6.876-7.892,7.516-19.67,6.811-25.384c-0.423-3.429-4.733-28.372-8.896-52.505c-3.13-18.144-6.089-35.283-6.565-38.525
			c-1.503-10.146-6.776-13.746-10.833-13.746h-12.63c-2.143,0-3.881,1.732-3.881,3.875c0,2.149,1.738,3.881,3.881,3.881h12.63
			c0.382,0.1,2.349,1.691,3.153,7.122c0.493,3.335,3.323,19.729,6.6,38.713c3.952,22.917,8.438,48.894,8.837,52.135
			c0.593,4.797-0.241,13.916-4.962,19.336c-5.32,6.107-11.203,11.591-11.262,11.644c-1.568,1.456-1.662,3.916-0.2,5.484
			C272.491,447.117,273.53,447.534,274.569,447.534z"/>
	</g>
	<path style="fill:#FFF39B;" d="M255.821,329.934h-14.057h-14.057c0,32.353-20.046,46.082-18.743,69.34
		c0,18.613,14.685,33.698,32.8,33.698s32.8-15.085,32.8-33.698C275.867,376.016,255.821,362.288,255.821,329.934z"/>
	<polygon style="fill:#747474;" points="259.373,329.934 224.16,329.934 224.16,321.221 259.373,321.221 	"/>
	<path style="fill:#FF7042;" d="M241.764,295.085c-9.013,0-22.506,2.713-22.506,26.135h22.506h22.506
		C264.27,297.798,250.783,295.085,241.764,295.085z"/>
	<path style="fill:#F9BF2C;" d="M257.371,404.03c-3.605-15.824-15.607-34.18-15.607-34.18s-12.002,18.355-15.607,34.18
		c-3.805,16.729,11.597,26.699,15.607,26.699C245.78,430.729,261.182,420.759,257.371,404.03z"/>
	<g>
		<path style="fill:#747474;" d="M269.672,419.62c-0.346,0-0.699-0.076-1.033-0.241c-42.194-20.868-56.193-43.069-56.768-44.003
			c-0.675-1.098-0.329-2.531,0.763-3.206c1.092-0.669,2.525-0.335,3.2,0.763c0.182,0.282,14.069,22.09,54.872,42.271
			c1.151,0.57,1.626,1.967,1.057,3.118C271.358,419.144,270.53,419.62,269.672,419.62z"/>
		<path style="fill:#747474;" d="M213.855,419.62c-0.857,0-1.685-0.476-2.09-1.298c-0.57-1.151-0.094-2.548,1.057-3.118
			c40.862-20.211,54.737-42.054,54.872-42.277c0.675-1.086,2.108-1.427,3.206-0.752c1.092,0.675,1.433,2.108,0.757,3.2
			c-0.575,0.934-14.574,23.135-56.768,44.003C214.554,419.543,214.202,419.62,213.855,419.62z"/>
		<path style="fill:#747474;" d="M241.764,432.972c-16.065,0-40.104,3.376-40.104,32.571h40.104h40.11
			C281.874,436.348,257.829,432.972,241.764,432.972z"/>
	</g>
	<path style="fill:#606060;" d="M296.87,473.693c0,3.429-2.777,6.206-6.206,6.206H192.87c-3.429,0-6.212-2.777-6.212-6.206v-1.944
		c0-3.429,2.783-6.206,6.212-6.206h97.794c3.429,0,6.206,2.777,6.206,6.206V473.693z"/>
	<path style="fill:#E5E5E5;" d="M244.33,282.015c0,1.421-1.145,2.566-2.566,2.566c-1.415,0-2.566-1.145-2.566-2.566v-12.83
		c0-1.421,1.151-2.572,2.566-2.572c1.421,0,2.566,1.151,2.566,2.572V282.015z"/>
	<path style="fill:#FFA98F;" d="M257.588,288.879c0,3.429-2.777,6.206-6.206,6.206h-19.236c-3.429,0-6.206-2.777-6.206-6.206v-2.413
		c0-3.429,2.777-6.206,6.206-6.206h19.236c3.429,0,6.206,2.777,6.206,6.206V288.879z"/>
</g>
<path style="fill:#FFF39B;" d="M248.646,420.036c-1.585-5.93-6.882-15.478-6.882-15.478s-5.296,9.547-6.882,15.478
	c-1.685,6.265,5.114,10,6.882,10C243.537,430.036,250.325,426.302,248.646,420.036z"/>
<g>
</g>
<g>
</g>
<g>
</g>
<g>
</g>
<g>
</g>
<g>
</g>
<g>
</g>
<g>
</g>
<g>
</g>
<g>
</g>
<g>
</g>
<g>
</g>
<g>
</g>
<g>
</g>
<g>
</g>
</svg>
