<?xml version="1.0" encoding="iso-8859-1"?>
<!-- Generator: Adobe Illustrator 19.0.0, SVG Export Plug-In . SVG Version: 6.00 Build 0)  -->
<svg version="1.1" id="Layer_1" xmlns="http://www.w3.org/2000/svg" xmlns:xlink="http://www.w3.org/1999/xlink" x="0px" y="0px"
	 viewBox="0 0 512 512" style="enable-background:new 0 0 512 512;" xml:space="preserve">
<path style="fill:#BBBBBB;" d="M255.998,0C397.386,0,512,114.614,512,255.998C512,397.386,397.386,512,255.998,512
	C114.614,512,0,397.386,0,255.998C0,114.614,114.614,0,255.998,0z"/>
<g>
	<polygon style="fill:#9F877E;" points="79.211,367.752 237.771,30.931 405.659,367.752 	"/>
	<polygon style="fill:#8B6E62;" points="405.659,367.752 237.771,30.931 237.771,367.752 	"/>
	<polygon style="fill:#EDEDED;" points="189.554,133.357 210.577,122.91 206.251,162.57 227.977,132.11 237.771,186.133 
		255.714,121.759 296.946,149.643 284.265,124.207 237.771,30.931 	"/>
	<path style="fill:#9F877E;" d="M294.877,367.752l149.976-259.593l63.31,103.491c2.512,14.408,3.837,29.222,3.837,44.347
		c0,40.072-9.214,77.982-25.623,111.755H294.877z"/>
	<path style="fill:#8B6E62;" d="M508.163,211.65l-63.31-103.491v259.593h41.524C502.786,333.98,512,296.069,512,255.998
		C512,240.873,510.675,226.058,508.163,211.65z"/>
	<polygon style="fill:#EDEDED;" points="399.245,187.097 419.13,179.043 415.032,209.608 435.584,186.133 444.853,227.776 
		461.819,178.157 500.817,199.654 488.826,180.044 444.853,108.159 	"/>
	<path style="fill:#9F877E;" d="M2.887,294.539l104.108-180.203l158.797,259.593H28.738C16.039,349.503,7.154,322.779,2.887,294.539
		z"/>
	<polygon style="fill:#8B6E62;" points="265.792,373.928 106.995,114.336 106.995,373.928 	"/>
	<polygon style="fill:#EDEDED;" points="61.386,193.277 81.272,185.224 77.174,215.789 97.73,192.309 106.995,233.956 
		123.961,184.338 162.963,205.835 150.967,186.224 106.995,114.336 	"/>
</g>
<path style="fill:#FFFFFF;" d="M179.596,21.155c16.738,0,30.3,13.567,30.3,30.3s-13.563,30.3-30.3,30.3
	c-16.733,0-30.3-13.567-30.3-30.3S162.863,21.155,179.596,21.155z"/>
<path style="fill:#6C4C40;" d="M69.024,325.351l-8.446-4.911l-17.427,24.759l-26.769,1.051C52.876,443.099,146.386,512,255.998,512
	c110.544,0,204.716-70.061,240.548-168.198l-22.26-15.628l-6.907,4.952l-30.579-24.449l-11.845-1.549l-28.204,7.766l-11.836-8.369
	l-12.494,9.913l-16.199-6.217l-10.845,2.476l-16.779,7.743l-5.591,8.976l-16.77,8.049l-12.302,1.096l-38.993,19.332l-35.631-15.883
	l-15.015,4.427l-8.885-13.928l-26.637,7.122l-20.716-20.123l-27.299-10.831l-14.965,5.811l-9.474-8.012L69.024,325.351z"/>
<g>
	<path style="fill:#EDEDED;" d="M108.351,66.453c2.695,0,5.24,0.64,7.492,1.772c2.435-2.385,5.774-3.855,9.456-3.855
		c6.373,0,11.717,4.413,13.147,10.347c3.189,0.959,5.742,3.367,6.912,6.455c0.384-0.046,0.772-0.064,1.165-0.064
		c5.888,0,10.671,4.778,10.671,10.671c0,5.893-4.783,10.671-10.671,10.671c-1.836,0-3.563-0.466-5.071-1.284
		c-1.297,4.436-5.39,7.674-10.246,7.674c-2.96,0-5.642-1.211-7.574-3.161c-1.937,1.951-4.618,3.161-7.583,3.161
		c-2.819,0-5.381-1.092-7.291-2.878c-1.951,2.133-4.751,3.472-7.871,3.472c-2.924,0-5.564-1.169-7.487-3.07
		c-0.882,0.196-1.8,0.297-2.736,0.297c-7.026,0-12.713-5.692-12.713-12.713c0-7.017,5.687-12.709,12.713-12.709
		c0.379,0,0.758,0.018,1.133,0.055C92.701,72.948,99.768,66.453,108.351,66.453z"/>
	<path style="fill:#EDEDED;" d="M322.596,65.703c2.695,0,5.24,0.64,7.487,1.772c2.439-2.385,5.779-3.855,9.461-3.855
		c6.373,0,11.722,4.413,13.152,10.347c3.184,0.959,5.742,3.367,6.907,6.455c0.384-0.041,0.772-0.064,1.165-0.064
		c5.888,0,10.671,4.778,10.671,10.676c0,5.888-4.783,10.667-10.671,10.667c-1.836,0-3.563-0.466-5.071-1.279
		c-1.293,4.431-5.39,7.67-10.242,7.67c-2.965,0-5.646-1.206-7.579-3.161c-1.937,1.955-4.618,3.161-7.583,3.161
		c-2.814,0-5.381-1.092-7.291-2.878c-1.946,2.133-4.751,3.472-7.871,3.472c-2.919,0-5.564-1.169-7.487-3.07
		c-0.882,0.196-1.8,0.297-2.736,0.297c-7.021,0-12.713-5.692-12.713-12.713c0-7.017,5.692-12.709,12.713-12.709
		c0.379,0,0.763,0.018,1.133,0.055C306.946,72.199,314.013,65.703,322.596,65.703z"/>
</g>
<path style="fill:#5C4036;" d="M88.224,449.357l0.676-11.192l25.029,19.492l0.959-15.838l1.019-0.457l1.074-0.48l24.915-11.082
	c38.007-16.678,79.919-34.279,121.681-50.309l2.38-14.764l22.941,19.186l2.38-14.764l6.775-2.526
	c7.432-2.691,14.828-5.313,22.155-7.843l0.379-0.132l2.864-0.982l4.842-8.926l18.396,8.606l4.842-8.931l0.566-0.183l1.462-0.484
	c1.704-0.534,3.408-1.069,5.103-1.594l0.767-0.238l4.984-9.351l18.423,10.47l4.988-9.351l1.489-0.434l1.444-0.42
	c0.872-0.233,1.74-0.466,2.608-0.694l27.148-9.506l0.585-0.206l0.571-0.206l0.557-0.201l3.805-10.982l19.15,23.69l2.549-7.355
	l3.367-11.443l19.552,13.677l3.367-11.448l8.172-0.192c3.961,0.082,7.702,0.343,11.206,0.781c3.275,0.411,6.405,0.891,9.406,1.439
	C472.952,432.469,373.773,512,255.998,512C191.816,512,133.152,488.378,88.224,449.357z"/>
<g>
</g>
<g>
</g>
<g>
</g>
<g>
</g>
<g>
</g>
<g>
</g>
<g>
</g>
<g>
</g>
<g>
</g>
<g>
</g>
<g>
</g>
<g>
</g>
<g>
</g>
<g>
</g>
<g>
</g>
</svg>
