<?xml version="1.0" encoding="iso-8859-1"?>
<!-- Generator: Adobe Illustrator 19.0.0, SVG Export Plug-In . SVG Version: 6.00 Build 0)  -->
<svg version="1.1" id="Layer_1" xmlns="http://www.w3.org/2000/svg" xmlns:xlink="http://www.w3.org/1999/xlink" x="0px" y="0px"
	 viewBox="0 0 512 512" style="enable-background:new 0 0 512 512;" xml:space="preserve">
<path style="fill:#B1E3FB;" d="M255.997,0C397.385,0,512,114.615,512,255.997C512,397.385,397.385,512,255.997,512
	C114.615,512,0,397.385,0,255.997C0,114.615,114.615,0,255.997,0z"/>
<path style="fill:#DFF5F9;" d="M155.487,20.498c5.571,9.832,8.752,21.196,8.752,33.306c0,37.374-30.3,67.674-67.674,67.674
	c-17.809,0-34.004-6.879-46.084-18.126C77.365,67.216,113.547,38.418,155.487,20.498z"/>
<path style="fill:#E8F8FB;" d="M143.841,25.822c5.559,8.599,8.781,18.848,8.781,29.842c0,30.429-24.665,55.095-55.095,55.095
	c-15.579,0-29.643-6.469-39.663-16.864C81.163,65.449,110.471,42.116,143.841,25.822z"/>
<path style="fill:#FFFFFF;" d="M467.964,147.175c2.659,0,5.165,0.434,7.384,1.192c2.401-1.597,5.694-2.583,9.321-2.583
	c0.863,0,1.702,0.053,2.518,0.158c4.209,8.828,7.93,17.932,11.123,27.283c-1.925,1.45-4.714,2.36-7.813,2.36
	c-2.923,0-5.565-0.804-7.472-2.119c-1.908,1.315-4.549,2.119-7.472,2.119c-2.776,0-5.306-0.734-7.185-1.925
	c-1.919,1.426-4.684,2.324-7.766,2.324c-2.876,0-5.482-0.781-7.378-2.054c-0.869,0.129-1.773,0.2-2.7,0.2
	c-6.921,0-12.526-3.815-12.526-8.523s5.606-8.517,12.526-8.517c0.376,0,0.751,0.012,1.121,0.035
	C452.532,151.531,459.5,147.175,467.964,147.175z"/>
<path style="fill:#FCFEFE;" d="M131.72,32.155c5.424,7.056,8.652,15.896,8.652,25.481c0,23.098-18.725,41.823-41.823,41.823
	c-13.025,0-24.648-5.952-32.32-15.279C84.996,63.465,107.114,45.85,131.72,32.155z"/>
<path style="fill:#FFFFFF;" d="M274.775,92.873c3.076,0,5.97,0.499,8.535,1.379c2.776-1.849,6.58-2.988,10.771-2.988
	c7.267,0,13.354,3.416,14.986,8.012c3.628,0.745,6.539,2.606,7.871,5.001c0.434-0.035,0.88-0.047,1.327-0.047
	c6.709,0,12.151,3.698,12.151,8.265c0,4.561-5.441,8.259-12.151,8.259c-2.096,0-4.062-0.358-5.776-0.986
	c-1.479,3.434-6.14,5.94-11.669,5.94c-3.381,0-6.433-0.939-8.635-2.454c-2.207,1.514-5.259,2.454-8.64,2.454
	c-3.205,0-6.128-0.845-8.3-2.231c-2.219,1.655-5.418,2.688-8.969,2.688c-3.328,0-6.339-0.904-8.529-2.377
	c-1.004,0.153-2.054,0.229-3.117,0.229c-8.001,0-14.481-4.402-14.481-9.844c0-5.436,6.48-9.844,14.481-9.844
	c0.434,0,0.869,0.012,1.291,0.041C256.948,97.91,265.001,92.873,274.775,92.873z"/>
<g>
	<path d="M263.434,41.324c0,0,5.794-1.239,10.642-0.311c4.854,0.927,9.914,4.96,15.391,5.271c5.477,0.305,4.338-1.761,4.338-1.761
		s-3.51,0.522-4.443-2.477c-0.927-2.994,2.894-5.377,8.781-9.503c5.893-4.132,7.026-8.265,5.893-10.848c0,0-1.039,1.655-5.893,4.238
		c-4.854,2.583-8.365,7.337-12.186,10.736c-3.821,3.416-4.033,3.616-7.643,2.894C274.698,38.841,266.95,37.708,263.434,41.324z"/>
	<path d="M191.293,91.241c0,0,5.794-1.239,10.636-0.311c4.86,0.927,9.92,4.96,15.397,5.271c5.477,0.305,4.338-1.761,4.338-1.761
		s-3.51,0.517-4.443-2.477c-0.927-2.994,2.894-5.377,8.775-9.503c5.893-4.132,7.032-8.265,5.893-10.848c0,0-1.033,1.655-5.893,4.238
		c-4.849,2.583-8.359,7.337-12.18,10.736c-3.821,3.416-4.033,3.616-7.648,2.894C202.558,88.758,194.809,87.626,191.293,91.241z"/>
	<path d="M293.189,153.585c0,0,5.788-1.239,10.636-0.311c4.86,0.927,9.92,4.96,15.397,5.271c5.471,0.305,4.332-1.761,4.332-1.761
		s-3.51,0.522-4.443-2.477c-0.922-2.994,2.9-5.371,8.781-9.497c5.893-4.132,7.026-8.265,5.893-10.853c0,0-1.039,1.655-5.893,4.238
		c-4.854,2.583-8.365,7.337-12.18,10.742c-3.827,3.41-4.033,3.616-7.648,2.894C304.453,151.102,296.699,149.969,293.189,153.585z"/>
</g>
<polygon style="fill:#EFEFEF;" points="128.421,155.475 66.142,263.346 445.858,263.346 379.681,156.591 311.08,231.455 
	178.855,230.211 "/>
<path style="fill:#FFFFFF;" d="M160.13,263.346l40.708-71.425l9.779,19.224l47.798-83.235l45.04,88.547l27.113-47.223l30.934,60.818
	c-7.772,12.767-17.762,24.043-29.426,33.294H175.861H160.13z"/>
<polygon style="fill:#CCCCCC;" points="258.415,127.91 311.08,231.455 330.568,169.234 378.936,263.346 257.124,263.346 
	268.324,253.285 241.516,239.614 275.309,220.925 258.415,211.574 258.415,201.847 "/>
<polygon style="fill:#FFFFFF;" points="128.421,155.475 149.154,117.896 192.462,206.508 160.13,263.346 66.893,262.043 "/>
<g>
	<path style="fill:#CCCCCC;" d="M149.154,117.896l43.308,88.612l-32.331,56.838c-7.349-7.314-8.693-24.965-14.064-33.904
		l10.795-10.096l-20.844-11.059l26.274-15.127l-13.137-7.566v-7.872V117.896z"/>
	<polygon style="fill:#CCCCCC;" points="379.681,156.591 358.039,118.219 331.859,171.776 361.502,230.052 378.936,263.346 
		445.858,263.346 	"/>
</g>
<g>
	<polygon style="fill:#FFFFFF;" points="358.039,118.219 331.859,171.776 354.969,217.203 362.799,204.8 353.372,189.321 
		361.69,180.557 351.952,173.66 	"/>
	<path style="fill:#FFFFFF;" d="M91.482,143.624c2.389,0,4.643,0.387,6.645,1.068c2.16-1.438,5.119-2.324,8.388-2.324
		c5.653,0,10.396,2.659,11.663,6.24c2.829,0.575,5.101,2.031,6.134,3.898c0.335-0.029,0.681-0.041,1.033-0.041
		c1.561,0,3.041,0.258,4.344,0.716l-1.268,2.295l-5.559,9.632c-0.71-0.129-1.385-0.317-2.019-0.546
		c-1.145,2.677-4.778,4.625-9.087,4.625c-2.63,0-5.007-0.722-6.721-1.902c-1.72,1.18-4.097,1.902-6.727,1.902
		c-2.495,0-4.772-0.657-6.469-1.732c-1.726,1.286-4.215,2.096-6.979,2.096c-2.594,0-4.937-0.71-6.645-1.855
		c-0.781,0.117-1.597,0.176-2.43,0.176c-6.228,0-11.27-3.428-11.27-7.666c0-4.232,5.042-7.66,11.27-7.66
		c0.34,0,0.675,0.006,1.01,0.029C77.594,147.539,83.863,143.624,91.482,143.624z"/>
</g>
<path style="fill:#7FDDE9;" d="M0.076,262.043h511.842C508.713,400.637,395.366,512,255.997,512
	C116.634,512,3.287,400.637,0.076,262.043z"/>
<path style="fill:#4CCFDF;" d="M8.899,323.072h494.203C473.629,431.923,374.175,512,255.997,512
	C137.825,512,38.371,431.923,8.899,323.072z"/>
<path style="fill:#26C5D9;" d="M33.494,382.669h445.007C434.43,459.917,351.3,512,255.997,512S77.565,459.917,33.494,382.669z"/>
<path style="fill:#31BBCB;" d="M77.741,439.712h356.519C388.163,484.447,325.303,512,255.997,512S123.837,484.447,77.741,439.712z"
	/>
<polygon style="fill:#C2E2E6;" points="128.421,369.914 66.142,262.043 445.858,262.043 379.681,368.798 311.08,293.934 
	178.855,295.178 "/>
<path style="fill:#CFEFF3;" d="M160.13,262.043l40.708,71.425l9.779-19.224l47.798,83.235l45.04-88.547l27.113,47.223l30.934-60.818
	c-7.772-12.767-17.762-24.043-29.426-33.294H175.861H160.13z"/>
<polygon style="fill:#A6C6CA;" points="258.415,397.479 311.08,293.934 330.568,356.155 378.936,262.043 257.124,262.043 
	268.324,272.104 241.516,285.775 275.309,304.465 258.415,313.815 258.415,323.542 "/>
<polygon style="fill:#CFEFF3;" points="128.421,369.914 149.154,407.493 192.462,318.881 160.13,262.043 66.893,263.346 "/>
<g>
	<path style="fill:#A6C6CA;" d="M149.154,407.493l43.308-88.612l-32.331-56.838c-7.349,7.314-8.693,24.965-14.064,33.904
		l10.795,10.096l-20.844,11.059l26.274,15.127l-13.137,7.566v7.872V407.493z"/>
	<polygon style="fill:#A6C6CA;" points="379.681,368.798 358.039,407.17 331.859,353.613 361.502,295.337 378.936,262.043 
		445.858,262.043 	"/>
</g>
<polygon style="fill:#CFEFF3;" points="358.039,407.17 331.859,353.613 354.969,308.186 362.799,320.589 353.372,336.068 
	361.69,344.832 351.952,351.729 "/>
<polygon style="fill:#B3B3B3;" points="66.893,262.043 445.858,262.043 445.858,263.998 66.893,263.998 "/>
<g>
</g>
<g>
</g>
<g>
</g>
<g>
</g>
<g>
</g>
<g>
</g>
<g>
</g>
<g>
</g>
<g>
</g>
<g>
</g>
<g>
</g>
<g>
</g>
<g>
</g>
<g>
</g>
<g>
</g>
</svg>
